<svg width="135" height="164" viewBox="0 0 135 164" fill="none" xmlns="http://www.w3.org/2000/svg">
<g clip-path="url(#clip0_2044_4445)">
<path d="M89.3269 162.597H45.6821V163.509H89.3269V162.597Z" fill="#D39C62"/>
<path d="M76.2921 15.4765C76.8783 15.5603 77.2225 15.7931 76.9806 16.4543C76.6364 17.6928 76.3386 21.3803 77.1108 26.6975C77.9854 32.7782 75.064 35.2087 71.5285 36.5682C70.1448 37.043 68.8766 37.8045 67.8069 38.8031C67.7779 38.8329 67.7432 38.8566 67.7048 38.8726C67.6664 38.8886 67.6252 38.8966 67.5836 38.8962C67.5434 38.8971 67.5034 38.8892 67.4664 38.8731C67.4295 38.857 67.3965 38.8331 67.3696 38.8031C66.2994 37.8052 65.0314 37.0437 63.6481 36.5682C60.0568 35.2087 57.1353 32.7782 58.0099 26.6975C58.7821 21.371 58.4844 17.6835 58.1308 16.4543C57.9541 15.8118 58.2332 15.5231 58.7728 15.5231L76.2921 15.4765ZM76.3665 14.4988H58.6146C58.3469 14.4999 58.0837 14.5675 57.8485 14.6954C57.6132 14.8234 57.4134 15.0077 57.2668 15.2319C57.1202 15.4561 57.0315 15.7132 57.0085 15.9802C56.9856 16.2471 57.0292 16.5156 57.1353 16.7616C57.3679 17.581 57.8052 20.952 56.9865 26.6044C56.7574 28.0074 56.7574 29.4383 56.9865 30.8413C57.189 31.9808 57.6332 33.0635 58.289 34.0167C58.8894 34.8666 59.6436 35.5962 60.5126 36.1678C61.3752 36.7184 62.2996 37.1653 63.2666 37.4994C64.5195 37.9239 65.6699 38.6058 66.6439 39.5015C66.7632 39.6289 66.9073 39.7305 67.0673 39.7999C67.2273 39.8694 67.3999 39.9052 67.5743 39.9052C67.7488 39.9052 67.9213 39.8694 68.0814 39.7999C68.2414 39.7305 68.3855 39.6289 68.5047 39.5015C69.4788 38.6058 70.6292 37.9239 71.882 37.4994C72.8379 37.1509 73.7497 36.6915 74.5988 36.1305C75.4704 35.5588 76.2276 34.8293 76.8317 33.9795C77.4807 33.0236 77.9214 31.9417 78.125 30.8041C78.354 29.4011 78.354 27.9701 78.125 26.5671C77.3155 20.9147 77.7435 17.5438 77.9761 16.7243C78.0594 16.483 78.0893 16.2264 78.0636 15.9723C78.0379 15.7182 77.9572 15.4728 77.8273 15.2531C77.6686 15.0397 77.4661 14.8628 77.2334 14.7343C77.0007 14.6058 76.7432 14.5286 76.4782 14.5081L76.3665 14.4988Z" fill="#D39C62"/>
<path d="M66.9886 43.3007C66.7932 43.1788 66.5675 43.1143 66.3373 43.1145H66.0768C66.0023 44.3251 65.9372 45.5263 65.8628 46.7276H66.1419C66.404 46.748 66.6669 46.6998 66.9048 46.5879C67.1151 46.4649 67.2687 46.2643 67.3328 46.0292C67.435 45.6787 67.479 45.3137 67.4631 44.949C67.4736 44.5856 67.436 44.2223 67.3514 43.8688C67.2941 43.6455 67.167 43.4465 66.9886 43.3007Z" fill="#D39C62"/>
<path d="M79.1856 38.2909C79.1856 38.2909 74.7662 41.9599 66.9881 41.904C59.21 41.8481 55.2745 38.3003 55.2373 38.2723C55.2001 38.2444 53.1625 44.1203 53.2555 44.2692C57.4517 46.6456 62.1683 47.9504 66.9881 48.0685C74.5057 48.0685 80.8138 44.5952 81.0091 44.2506C81.0464 44.1109 79.2135 38.3654 79.1856 38.2909ZM60.5777 46.0385C60.0195 45.9019 59.4613 45.7436 58.903 45.5636V45.5077H59.0612C59.1324 45.5127 59.2026 45.4893 59.2566 45.4426C59.2955 45.3929 59.324 45.3359 59.3403 45.2749L59.7311 43.9526C59.9078 43.3939 60.0753 42.8352 60.2428 42.2765C59.4927 43.3002 58.6915 44.2854 57.8424 45.2284L57.5074 45.1073C57.433 43.8316 57.4237 42.5651 57.5074 41.308L56.9213 42.7235L56.3165 44.1389C56.2806 44.2076 56.2645 44.285 56.27 44.3624C56.2759 44.399 56.2898 44.4338 56.3107 44.4644C56.3316 44.495 56.359 44.5205 56.391 44.5393L56.5119 44.6417V44.6976L55.6559 44.3251V44.2692H55.8048C55.8822 44.2839 55.9623 44.2691 56.0295 44.2278C56.0966 44.1865 56.1459 44.1215 56.1677 44.0458C56.577 43.1146 56.9957 42.1275 57.4144 41.1683C57.4478 41.1083 57.4669 41.0414 57.4702 40.9728C57.4624 40.9089 57.4328 40.8497 57.3865 40.8052L57.2748 40.6748V40.6189C57.6377 40.7772 58.0005 40.9355 58.3541 41.0752C58.3541 42.1368 58.3541 43.1984 58.4378 44.2692C59.1356 43.4591 59.7869 42.6303 60.4103 41.7829C60.7824 41.8947 61.1639 42.0064 61.5453 42.0995V42.1554H61.4058C61.3352 42.1579 61.2684 42.188 61.2197 42.2392C61.1776 42.2916 61.146 42.3517 61.1267 42.4162C60.8661 43.4498 60.5963 44.4927 60.3265 45.5264C60.314 45.5878 60.314 45.6512 60.3265 45.7126C60.3529 45.7802 60.4023 45.8363 60.4661 45.8709L60.587 45.9547L60.5777 46.0385ZM64.3923 43.7664H64.3272C64.2714 43.5708 64.2063 43.3846 64.1504 43.1891C64.128 43.1276 64.1 43.0684 64.0667 43.0121C64.0254 42.9602 63.9651 42.9267 63.8992 42.919L62.8758 42.7514L62.5688 44.4089L63.22 44.5207C63.283 44.5442 63.3524 44.5442 63.4154 44.5207C63.4679 44.4798 63.5122 44.4292 63.5457 44.3717L63.7038 44.1575H63.7597C63.7597 44.502 63.6666 44.8466 63.6108 45.2004H63.555C63.555 45.1073 63.4899 45.0235 63.4619 44.9397C63.4404 44.8733 63.409 44.8105 63.3689 44.7535C63.3263 44.703 63.2668 44.6698 63.2014 44.6603C62.9781 44.6603 62.7641 44.5952 62.5502 44.5486L62.2152 46.3365L63.5271 46.5507C63.5962 46.5756 63.6719 46.5756 63.7411 46.5507C63.7965 46.5065 63.8437 46.4529 63.8806 46.3924L64.2063 45.8895H64.2714C64.2714 46.1875 64.1783 46.4855 64.1225 46.8207C63.0304 46.6879 61.9464 46.4952 60.8754 46.2434V46.1875H61.0336C61.0979 46.1849 61.1597 46.1621 61.2104 46.1223C61.2548 46.0727 61.2839 46.0112 61.2941 45.9454C61.5081 44.9583 61.7314 43.9713 61.9547 42.9749C61.9681 42.9135 61.9681 42.85 61.9547 42.7886C61.9303 42.7328 61.8876 42.6868 61.8338 42.6583L61.7221 42.5745V42.5186C62.6156 42.7266 63.5193 42.8882 64.4295 43.0028C64.4389 43.1425 64.4109 43.4405 64.3923 43.7664ZM68.1604 46.0106C67.9709 46.3106 67.6905 46.5423 67.3603 46.6717C66.9665 46.8364 66.5388 46.9035 66.1136 46.8673C65.5739 46.8673 65.0343 46.8021 64.4947 46.7462V46.6904H64.6342C64.6984 46.6795 64.7567 46.6466 64.7992 46.5973C64.8416 46.548 64.8656 46.4854 64.8668 46.4203L65.1459 43.3846C65.1592 43.3228 65.1518 43.2583 65.1249 43.2012C65.098 43.144 65.0531 43.0972 64.9971 43.068L64.8761 43.0121V42.9563C65.3786 43.0121 65.881 43.0494 66.3834 43.068C66.7445 43.0775 67.0996 43.1632 67.4254 43.3194C67.7094 43.4707 67.9472 43.6959 68.1139 43.9713C68.2977 44.2817 68.3971 44.6348 68.4023 44.9956C68.4147 45.3407 68.3309 45.6824 68.1604 45.9826V46.0106ZM72.5705 45.3587C72.5102 45.6157 72.396 45.857 72.2355 46.0665C72.071 46.2682 71.8688 46.4358 71.6401 46.56C71.4042 46.6805 71.1492 46.7592 70.8865 46.7928C70.6252 46.8197 70.3612 46.804 70.1049 46.7462C69.8536 46.6865 69.6186 46.572 69.4165 46.411C69.2044 46.2533 69.035 46.0453 68.9233 45.8057C68.6828 45.2491 68.6498 44.6246 68.8303 44.0458C68.9157 43.8038 69.0451 43.5796 69.2118 43.3846C69.3688 43.2114 69.5545 43.0665 69.7607 42.9563C69.9647 42.8535 70.1851 42.7873 70.412 42.7607C70.6365 42.719 70.8667 42.719 71.0912 42.7607C71.3192 42.8088 71.5346 42.9039 71.7238 43.0401C71.9315 43.1876 72.1084 43.3742 72.2448 43.5895C72.4046 43.8494 72.515 44.1367 72.5705 44.4369C72.6398 44.7402 72.6398 45.0554 72.5705 45.3587ZM75.1477 42.8352L74.6453 42.3417C74.5952 42.2873 74.5352 42.243 74.4685 42.2113C74.4346 42.1972 74.3982 42.19 74.3615 42.19C74.3248 42.19 74.2884 42.1972 74.2545 42.2113L73.3241 42.4441C73.3799 42.7141 73.4451 42.9842 73.5102 43.2635C73.5753 43.5429 73.6497 43.8223 73.7149 44.1016L74.3382 43.9433C74.4124 43.9317 74.4792 43.8917 74.5243 43.8316C74.5593 43.7708 74.5845 43.7048 74.5987 43.636C74.6248 43.5534 74.6465 43.4695 74.6639 43.3846H74.7197C74.8127 43.7105 74.9151 44.0364 75.0081 44.3158H74.943L74.7476 44.1389C74.6989 44.0869 74.6424 44.0429 74.5801 44.0085C74.511 43.9836 74.4353 43.9836 74.3661 44.0085L73.7428 44.1668C73.7986 44.4369 73.8637 44.6883 73.9196 44.9211C73.9754 45.1539 74.0405 45.4053 74.0963 45.6288C74.1119 45.6994 74.1525 45.762 74.2107 45.8048C74.2689 45.8476 74.3407 45.8678 74.4127 45.8616H74.6173V45.9175C74.0405 46.0665 73.4451 46.1968 72.8589 46.3086V46.2527L72.9706 46.1968C73.0346 46.1686 73.0872 46.1193 73.1194 46.0571C73.143 45.9941 73.143 45.9246 73.1194 45.8616C73.1194 45.6288 73.0357 45.396 72.9892 45.1725C72.9426 44.949 72.8868 44.7069 72.8496 44.4741C72.8452 44.3966 72.8452 44.3188 72.8496 44.2413C72.7938 44.0178 72.7566 43.785 72.71 43.5522C72.6635 43.3194 72.6077 43.0959 72.5612 42.8631C72.5483 42.8013 72.5263 42.7417 72.4961 42.6862C72.4511 42.6419 72.3916 42.6154 72.3286 42.6117H72.1983V42.5558C73.1105 42.3874 74.0115 42.1635 74.8965 41.8854L75.2221 42.8166L75.1477 42.8352ZM78.1435 43.2542L77.9295 43.1052L77.7528 42.9935C77.6799 42.9718 77.6023 42.9718 77.5295 42.9935L76.9247 43.2356L77.1945 43.9619C77.2783 44.1947 77.3713 44.4182 77.455 44.6417C77.4803 44.7091 77.529 44.7652 77.5923 44.7994C77.6556 44.8336 77.7291 44.8438 77.7993 44.828H78.004V44.8745C77.4364 45.098 76.8689 45.3029 76.2921 45.4891V45.4332L76.3944 45.3587C76.4576 45.3235 76.5069 45.2676 76.534 45.2004C76.5521 45.1397 76.5521 45.075 76.534 45.0142C76.4688 44.7907 76.3944 44.5579 76.32 44.3344L76.0967 43.664C76.0677 43.5909 76.0428 43.5163 76.0222 43.4405L75.7803 42.8352C75.7059 42.6117 75.6315 42.3882 75.5477 42.1647C75.5315 42.1038 75.503 42.0467 75.464 41.9971C75.4399 41.9762 75.4118 41.9604 75.3814 41.9508C75.351 41.9412 75.3189 41.9379 75.2872 41.9412H75.157V41.8854C76.0506 41.6023 76.9267 41.2664 77.7807 40.8797C77.9202 41.1683 78.0691 41.457 78.218 41.7457H78.1621L77.5946 41.3173C77.5377 41.2746 77.4751 41.2401 77.4085 41.2149C77.3358 41.1926 77.258 41.1926 77.1852 41.2149C76.8968 41.336 76.6084 41.457 76.3107 41.5595C76.4037 41.8202 76.506 42.0902 76.5991 42.3603L76.9061 43.1611L77.5016 42.9283C77.5756 42.905 77.6385 42.8553 77.6783 42.7886C77.7103 42.7247 77.7293 42.6551 77.7342 42.5838C77.7342 42.5 77.7342 42.4162 77.7342 42.3323H77.79C77.9202 42.649 78.0505 42.9656 78.1901 43.2635L78.1435 43.2542Z" fill="#D39C62"/>
<path d="M71.3424 43.515C71.2768 43.2984 71.147 43.1068 70.9702 42.9656C70.8098 42.8769 70.6256 42.8409 70.4437 42.8626C70.2617 42.8843 70.0911 42.9627 69.9561 43.0867C69.8221 43.2654 69.7415 43.4785 69.7235 43.7013C69.6817 44.085 69.6817 44.4722 69.7235 44.856C69.7426 45.2412 69.8082 45.6226 69.9189 45.992C69.9739 46.2161 70.1056 46.4138 70.291 46.5508C70.4699 46.6578 70.681 46.6974 70.8865 46.6625C71.0956 46.6441 71.2923 46.5555 71.4447 46.4111C71.5901 46.2352 71.6721 46.0154 71.6773 45.7872C71.7056 45.402 71.6932 45.015 71.6401 44.6325C71.5797 44.2507 71.48 43.8762 71.3424 43.515Z" fill="#D39C62"/>
<path d="M54.7165 38.0116L53.2279 42.1927L52.6883 42.1461V38.0302C52.6909 37.9993 52.687 37.9683 52.6769 37.939C52.6669 37.9097 52.6508 37.8828 52.6298 37.86C52.6088 37.8372 52.5833 37.8191 52.555 37.8067C52.5266 37.7943 52.4959 37.788 52.465 37.7881H51.73V36.9314L59.3592 36.8662C59.439 36.8754 59.5125 36.9137 59.5658 36.9739C59.619 37.0341 59.6482 37.1118 59.6476 37.1921V37.5739H55.4702C55.3122 37.5718 55.1569 37.6156 55.0232 37.6999C54.8895 37.7841 54.783 37.9053 54.7165 38.0488" fill="#D39C62"/>
<path d="M42.3052 38.1047L44.0171 40.5445L42.3052 42.9935H52.2976V38.6821C52.3001 38.6087 52.2881 38.5355 52.2623 38.4668C52.2365 38.3981 52.1975 38.3351 52.1473 38.2815C52.0972 38.2278 52.037 38.1846 51.9702 38.1543C51.9034 38.124 51.8313 38.1071 51.758 38.1047H42.3052Z" fill="#D39C62"/>
<path d="M59.4521 38.0023H55.377C55.377 38.0023 57.1912 39.157 57.7774 39.4643C58.4857 39.8345 59.2232 40.1459 59.9824 40.3955V38.5331C59.9849 38.3889 59.9307 38.2496 59.8315 38.1451C59.7323 38.0405 59.596 37.9792 59.4521 37.9744" fill="#D39C62"/>
<path d="M79.5392 38.0116L81.0279 42.1927L81.5675 42.1461V38.0302C81.5649 37.9993 81.5688 37.9683 81.5788 37.939C81.5889 37.9097 81.6049 37.8828 81.6259 37.86C81.6469 37.8372 81.6724 37.8191 81.7008 37.8067C81.7292 37.7943 81.7598 37.788 81.7908 37.7881H82.5258V36.9314L74.8966 36.8662C74.8168 36.8754 74.7433 36.9137 74.69 36.9739C74.6368 37.0341 74.6076 37.1118 74.6082 37.1921V37.5739H78.7949C78.9514 37.5736 79.1046 37.6182 79.2365 37.7024C79.3684 37.7866 79.4735 37.9068 79.5392 38.0488" fill="#D39C62"/>
<path d="M91.9507 38.1047L90.2481 40.5445L91.96 42.9935H81.9583V38.6821C81.9558 38.6079 81.9681 38.534 81.9945 38.4647C82.0209 38.3954 82.0608 38.332 82.1119 38.2782C82.1629 38.2245 82.2242 38.1815 82.2921 38.1517C82.36 38.1219 82.4331 38.1059 82.5073 38.1047H91.9507Z" fill="#D39C62"/>
<path d="M74.8036 38.0023H78.8787C78.8787 38.0023 77.0179 39.157 76.4783 39.4643C75.7727 39.8336 75.0384 40.145 74.2826 40.3955V38.5331C74.2801 38.4622 74.2916 38.3914 74.3164 38.3249C74.3413 38.2585 74.379 38.1975 74.4274 38.1456C74.4757 38.0937 74.5339 38.0519 74.5984 38.0225C74.663 37.9931 74.7327 37.9768 74.8036 37.9744" fill="#D39C62"/>
<path d="M42.4164 31.158C42.5939 31.3573 42.7016 31.609 42.7235 31.8751C42.7652 32.1618 42.7839 32.4514 42.7793 32.7411C42.8026 33.2291 42.6864 33.7136 42.4444 34.1379V34.2031C42.5322 34.1367 42.6161 34.0652 42.6956 33.9889L42.8258 33.8678L42.9189 33.784L43.077 33.635V33.8492C43.077 33.8492 43.077 33.9051 43.077 33.933C43.0815 33.9701 43.0815 34.0076 43.077 34.0448C43.0564 34.1175 43.0315 34.189 43.0026 34.2589L42.9189 34.5197C42.91 34.5877 42.91 34.6565 42.9189 34.7245C42.9189 34.9666 42.984 35.2088 43.0212 35.4229C43.0172 35.4413 43.0172 35.4604 43.0212 35.4788C43.0869 35.4101 43.1717 35.3627 43.2646 35.3428C43.3574 35.3229 43.4542 35.3313 43.5422 35.3671C43.6714 35.4112 43.7805 35.5004 43.8493 35.6185C43.8838 35.6549 43.9094 35.6989 43.9242 35.7469C43.9389 35.795 43.9424 35.8458 43.9343 35.8953C43.9262 35.9449 43.9067 35.992 43.8775 36.0328C43.8482 36.0736 43.8099 36.1071 43.7655 36.1306L43.6539 36.2051L43.5329 36.2983C43.5198 36.3121 43.5125 36.3304 43.5125 36.3495C43.5125 36.3685 43.5198 36.3869 43.5329 36.4007C43.5977 36.5771 43.682 36.7458 43.7841 36.9035H44.147H44.4912H45.0402H47.0312C47.0312 36.9035 47.0312 36.9035 47.0963 36.9035C47.0712 36.809 47.0336 36.7182 46.9847 36.6335C46.9292 36.5278 46.8885 36.415 46.8637 36.2983L47.1056 36.0375C46.9256 35.9895 46.7718 35.8724 46.6776 35.7116L46.4637 35.4322C46.3535 35.2928 46.2115 35.182 46.0496 35.1091C45.8876 35.0361 45.7105 35.0033 45.5333 35.0132C45.4482 35.0231 45.362 35.0102 45.2836 34.9758C45.2051 34.9415 45.1372 34.8869 45.0867 34.8176V34.7525C44.9748 34.6038 44.8722 34.4483 44.7796 34.2869C44.6805 34.1104 44.6025 33.9228 44.547 33.7281C44.3732 33.1854 44.2517 32.6272 44.1842 32.0613C44.1294 31.8342 44.1234 31.598 44.1667 31.3685C44.21 31.1389 44.3016 30.9211 44.4354 30.7297C44.7782 30.2653 45.2119 29.8756 45.71 29.5843L46.1287 29.3515L46.5381 29.1187C46.8431 28.9473 47.1272 28.7411 47.3847 28.5041C47.5019 28.3977 47.5962 28.2685 47.6618 28.1244C47.7274 27.9803 47.7629 27.8244 47.7662 27.666C47.7813 27.5548 47.7813 27.442 47.7662 27.3308V27.1911C47.7247 26.9275 47.6688 26.6664 47.5987 26.4089C47.4685 25.9619 47.3196 25.5243 47.1708 25.0959V24.9656L46.7242 23.6805L46.5288 23.1125C46.4893 23.0049 46.4673 22.8918 46.4637 22.7772V22.6096L46.5846 22.7214C46.6993 22.8193 46.7968 22.9357 46.873 23.0659L46.9288 23.1497C47.0219 23.2801 47.1056 23.4198 47.1894 23.5594C47.2731 23.6991 47.3568 23.8388 47.4406 23.9971C47.5243 24.1554 47.5987 24.3044 47.6639 24.4534C47.7408 24.6046 47.8091 24.7601 47.8685 24.919C47.8685 25.0121 47.9337 25.1052 47.9709 25.189L48.0267 25.3753C48.0496 25.4392 48.0682 25.5045 48.0825 25.5708C48.0781 25.608 48.0781 25.6455 48.0825 25.6826C48.3642 25.0709 48.7587 24.518 49.2455 24.053C49.6042 23.7003 50.0004 23.388 50.4271 23.1218L50.7993 22.889L51.0784 22.7121C51.6474 22.3345 52.1773 21.9009 52.6601 21.4177C53.0665 21.0673 53.4041 20.6441 53.6556 20.1699C53.8819 19.7127 54.0747 19.2396 54.2324 18.7545C54.2734 18.6574 54.2924 18.5525 54.2883 18.4472C54.1622 18.4232 54.0328 18.4232 53.9068 18.4472C53.1228 18.5756 52.3926 18.9281 51.8041 19.4622L51.5715 19.6577C51.4696 19.7385 51.3433 19.7825 51.2133 19.7825C51.0833 19.7825 50.957 19.7385 50.8551 19.6577C50.5594 19.4692 50.3085 19.2181 50.1201 18.9221C50.0153 18.7532 49.919 18.5791 49.8317 18.4006C49.6716 17.9947 49.3665 17.6629 48.9757 17.4694L48.7524 17.3483C48.726 17.3281 48.7039 17.3028 48.6873 17.2739L48.5849 17.1435H49.1525L48.9478 16.8641H49.0967C49.1355 16.8614 49.1745 16.8667 49.2113 16.8795C49.2481 16.8923 49.2819 16.9124 49.3107 16.9386C49.563 17.1513 49.7634 17.4189 49.8968 17.7208C49.9415 17.7946 49.9789 17.8726 50.0084 17.9536C50.0829 18.0933 50.148 18.2423 50.2131 18.3913C50.3328 18.6314 50.4934 18.8489 50.6876 19.0338C50.8104 19.1634 50.9641 19.2595 51.1342 19.3132C51.1713 19.3384 51.215 19.3519 51.2598 19.3519C51.3046 19.3519 51.3484 19.3384 51.3854 19.3132C51.5064 19.2014 51.618 19.0897 51.739 18.9593L51.9437 18.7358C52.0367 18.6148 52.1484 18.503 52.2507 18.3913C52.3599 18.2773 52.4853 18.1801 52.6229 18.1026C52.8927 17.9536 53.1718 17.8139 53.4509 17.6929C53.6917 17.5904 53.9523 17.5427 54.2138 17.5532C54.3621 17.5521 54.5091 17.5804 54.6464 17.6363C54.7837 17.6922 54.9086 17.7748 55.014 17.8791C55.1157 17.9749 55.1835 18.1013 55.207 18.2391C55.2305 18.3769 55.2085 18.5186 55.1442 18.6427V18.6893C55.1234 18.7317 55.1047 18.7753 55.0884 18.8196C55.0884 18.95 55.0884 19.0245 55.0884 19.0804C55.1224 19.1161 55.1507 19.157 55.1721 19.2014C55.2442 19.3036 55.2829 19.4256 55.2829 19.5506C55.2829 19.6757 55.2442 19.7977 55.1721 19.8998C55.0735 20.0448 54.9295 20.1529 54.7628 20.2071C54.6604 20.2071 54.5581 20.263 54.4557 20.2909H54.3813H54.251V21.2873C54.251 21.6877 54.251 22.0882 54.251 22.4979V22.5631H54.3069C54.3906 22.5221 54.4714 22.4754 54.5488 22.4234C54.6718 22.3472 54.7899 22.2632 54.9023 22.172C55.0079 22.0712 55.1404 22.0033 55.2838 21.9764H55.4047V22.0975C55.3515 22.2524 55.2585 22.3905 55.1349 22.4979L54.9767 22.6282L54.8837 22.7027C55.0052 22.6659 55.1234 22.6192 55.2373 22.5631C55.541 22.4219 55.7985 22.1973 55.9797 21.9154C56.1609 21.6335 56.2583 21.3059 56.2607 20.9707C56.2607 20.7472 56.2607 20.5237 56.2607 20.3189C56.2428 20.1207 56.2782 19.9214 56.363 19.7415C56.4003 19.6366 56.4438 19.534 56.4933 19.4342C56.5663 19.2833 56.6045 19.1178 56.6049 18.95C56.6049 18.8755 56.6049 18.7917 56.6049 18.7079C56.6049 18.6241 56.6049 18.2609 56.6049 18.0374C56.5809 17.6017 56.4931 17.1719 56.3444 16.7617C56.2041 16.3663 56.0134 15.9907 55.7769 15.6443C55.7211 15.5698 55.6931 15.5232 55.6373 15.5232C55.3784 15.4911 55.1157 15.5264 54.8744 15.6256L54.1301 15.9702L53.6556 16.175L52.8368 16.5755C52.7252 16.6406 52.6229 16.7151 52.5298 16.7803L52.4275 16.8548H52.3716C52.2874 16.9353 52.18 16.9874 52.0646 17.0038H51.9251L51.9809 16.8734C51.9778 16.8363 51.9778 16.7989 51.9809 16.7617L52.1018 16.6686C52.2157 16.4399 52.2761 16.1884 52.2786 15.9329C52.2607 15.4635 52.0738 15.0163 51.7523 14.674C51.4308 14.3318 50.9965 14.1174 50.5295 14.0705C50.2613 14.0289 49.9882 14.0289 49.72 14.0705C49.6968 14.0775 49.6724 14.0796 49.6483 14.0768C49.6242 14.0739 49.601 14.0661 49.5801 14.0539C49.5591 14.0417 49.5409 14.0253 49.5266 14.0057C49.5122 13.9861 49.5021 13.9638 49.4967 13.9402V13.8936C49.5842 13.8164 49.6965 13.7734 49.8131 13.7725C50.0822 13.7446 50.3534 13.7446 50.6225 13.7725C51.0763 13.8158 51.5057 13.9983 51.8521 14.2949C52.1984 14.5916 52.4449 14.988 52.5577 15.4301L52.6135 15.7001L52.6694 15.9515V16.026L52.8182 15.9422C53.356 15.5841 53.9658 15.3489 54.6046 15.2531H54.6976C54.7211 15.077 54.7211 14.8985 54.6976 14.7224C54.6005 14.094 54.3443 13.5009 53.9533 12.9996C53.5042 12.2861 52.8623 11.7146 52.1018 11.3514C51.6543 11.1558 51.1904 11 50.7155 10.8858C50.6268 10.8673 50.5428 10.8303 50.4691 10.7774C50.3954 10.7245 50.3336 10.6568 50.2876 10.5785C50.1903 10.4361 50.0501 10.3284 49.8875 10.2712C49.8309 10.244 49.7689 10.2298 49.7061 10.2298C49.6433 10.2298 49.5813 10.244 49.5246 10.2712C49.2304 10.393 48.9118 10.444 48.5943 10.4202C48.3496 10.4089 48.1105 10.3428 47.8948 10.2268C47.679 10.1107 47.492 9.94773 47.3475 9.74976C47.194 9.53028 47.0896 9.28023 47.0414 9.01667C46.9932 8.75312 47.0024 8.48226 47.0684 8.22259V8.15741H47.1335C47.178 8.16184 47.2194 8.18216 47.2502 8.21465C47.281 8.24714 47.299 8.28963 47.301 8.33434C47.301 8.39952 47.301 8.46471 47.3475 8.5392C47.394 8.6137 47.3475 8.79063 47.422 8.91168C47.4738 9.15025 47.601 9.36575 47.7848 9.52627C47.9332 9.67256 48.1115 9.78494 48.3075 9.85567C48.5034 9.9264 48.7124 9.9538 48.9199 9.936H48.9943C49.1028 9.9329 49.2098 9.91084 49.3107 9.87082C49.5645 9.76736 49.7977 9.61912 49.9991 9.43315L50.2876 9.10723C50.3434 9.04205 50.3992 8.98618 50.4457 8.92099C50.4497 8.90572 50.4497 8.8897 50.4457 8.87443C50.4822 8.81061 50.5424 8.76377 50.6132 8.74407H50.6783V8.79994C50.6892 8.82682 50.6892 8.85687 50.6783 8.88375C50.6854 8.93628 50.6854 8.98952 50.6783 9.04205C50.5478 9.36646 50.3402 9.65413 50.0736 9.88013C50.3553 9.94584 50.619 10.073 50.8458 10.2526C50.96 10.3456 51.0946 10.4101 51.2386 10.4408C51.3825 10.4716 51.5317 10.4677 51.6739 10.4295H51.8599C51.8634 10.4574 51.8634 10.4855 51.8599 10.5133L51.9344 10.653C52.0278 10.8013 52.1515 10.9282 52.2972 11.0255C52.3633 11.0704 52.4376 11.1017 52.5159 11.1177C52.5941 11.1337 52.6747 11.134 52.7531 11.1186C52.8338 11.1116 52.911 11.0828 52.9766 11.0352C53.0421 10.9876 53.0935 10.9231 53.1253 10.8486C53.1253 10.7648 53.1904 10.6716 53.2276 10.5878V10.504L52.6694 9.99187H52.6042C52.5255 10.0242 52.4383 10.0298 52.356 10.008C52.2737 9.9861 52.2008 9.93795 52.1484 9.87082C52.0908 9.8194 52.0523 9.75016 52.0388 9.67417C52.0253 9.59819 52.0376 9.51988 52.0739 9.45178C52.111 9.38552 52.1674 9.33218 52.2355 9.2989C52.3037 9.26561 52.3804 9.25397 52.4554 9.26554C52.538 9.26973 52.6181 9.29504 52.6882 9.33906C52.7582 9.38307 52.8158 9.44432 52.8555 9.51696C52.8856 9.57432 52.9306 9.62255 52.9857 9.65664L53.3206 9.87082L53.5532 10.0291L53.7579 9.92669H53.851L54.0184 9.97325C54.1001 9.98314 54.1828 9.96565 54.2535 9.92353C54.3242 9.88141 54.3789 9.81703 54.4092 9.74045C54.4338 9.67188 54.4333 9.59678 54.4078 9.52856C54.3822 9.46033 54.3333 9.40342 54.2697 9.36797L54.1859 9.3121H54.2231L54.3255 9.24691H54.3906L54.4929 9.19104C54.5612 9.1504 54.6132 9.08741 54.6404 9.01274C54.6675 8.93807 54.668 8.85632 54.6418 8.78131C54.5956 8.61678 54.495 8.47281 54.3564 8.37299C54.2178 8.27317 54.0494 8.22343 53.8789 8.23191C53.801 8.24292 53.7216 8.23223 53.6494 8.20102C53.5771 8.16981 53.5149 8.11928 53.4695 8.05498L53.2183 7.71975C53.0081 7.40911 52.7234 7.15618 52.3903 6.9841C52.3693 6.96796 52.3506 6.94918 52.3344 6.92823V6.86304C52.3569 6.82137 52.3756 6.77773 52.3903 6.73267C52.4119 6.67115 52.4146 6.60453 52.398 6.54145C52.3814 6.47836 52.3463 6.42171 52.2972 6.37882C52.245 6.32531 52.18 6.28609 52.1083 6.2649C52.0366 6.24371 51.9607 6.24125 51.8878 6.25776C51.9594 6.3335 52.0162 6.42192 52.0553 6.5185C52.1019 6.61849 52.1161 6.73051 52.0961 6.83899C52.0761 6.94747 52.0228 7.04701 51.9437 7.12378C51.8757 7.21213 51.7793 7.27428 51.6708 7.29973C51.5623 7.32518 51.4484 7.31237 51.3482 7.26346H51.2645C51.2228 7.2213 51.1911 7.17041 51.1714 7.11447C51.0326 7.06763 50.8823 7.06763 50.7435 7.11447C50.7742 7.14726 50.7913 7.19055 50.7913 7.23552C50.7913 7.2805 50.7742 7.32378 50.7435 7.35658H50.6783C50.4645 7.24655 50.2299 7.18307 49.9898 7.17034H49.9247V7.08653C49.9291 7.07132 49.9291 7.05518 49.9247 7.03997C49.9159 7.00955 49.9159 6.97727 49.9247 6.94685C50.0069 6.75238 50.1625 6.59826 50.3577 6.51804C50.5528 6.43781 50.7717 6.43798 50.9668 6.5185C51.0751 6.56877 51.1807 6.62472 51.2831 6.68611C51.3755 6.72389 51.4791 6.72389 51.5715 6.68611C51.5972 6.68343 51.622 6.67541 51.6445 6.66259C51.6669 6.64976 51.6864 6.6324 51.7018 6.61162C51.7134 6.58685 51.7194 6.55983 51.7194 6.53247C51.7194 6.50511 51.7134 6.47808 51.7018 6.45331C51.646 6.32525 51.5517 6.21782 51.4319 6.14602L51.1994 6.04359H51.1063L50.9295 5.96909L50.4829 5.78285C50.4393 5.75652 50.4013 5.72169 50.3713 5.68042L50.3155 5.61524L50.241 5.5128H50.4457H50.5295H50.6132H50.8179L51.2552 5.57799C51.3535 5.59663 51.4545 5.59663 51.5529 5.57799C51.624 5.57383 51.6913 5.5443 51.7425 5.49476C51.7937 5.44521 51.8255 5.37893 51.832 5.30794C51.832 5.18688 51.832 5.05652 51.832 4.87959C51.8295 4.80679 51.8107 4.73549 51.7769 4.671C51.743 4.60651 51.6951 4.55049 51.6366 4.50711C51.5923 4.46519 51.5394 4.43347 51.4815 4.41417C51.4237 4.39487 51.3623 4.38845 51.3017 4.39536C51.3061 4.42937 51.3061 4.46379 51.3017 4.4978C51.3195 4.60169 51.306 4.70854 51.2629 4.80472C51.2199 4.90091 51.1491 4.98208 51.0598 5.03789C50.9462 5.12377 50.8101 5.17477 50.668 5.18469C50.526 5.19461 50.3841 5.16302 50.2597 5.09376C50.2221 5.07006 50.1903 5.03824 50.1666 5.00064V4.94477L50.055 4.79578H50.241C50.5388 4.79578 50.669 4.69335 50.7807 4.46986C50.7836 4.43889 50.7836 4.40771 50.7807 4.37674C50.8439 4.16562 50.8629 3.94371 50.8365 3.7249C50.8365 3.52004 50.7342 3.32448 50.669 3.12893V3.00788V2.96132C50.669 2.96132 50.6132 2.96132 50.5946 3.0265L50.4736 3.15687C50.4065 3.24402 50.3318 3.32504 50.2503 3.39898C49.9804 3.63718 49.8136 3.97111 49.7852 4.33018C49.7852 4.48848 49.7852 4.62816 49.7386 4.74922C49.6819 5.07082 49.5219 5.36509 49.2827 5.5873C49.2676 5.59731 49.2498 5.60265 49.2316 5.60265C49.2134 5.60265 49.1956 5.59731 49.1804 5.5873H49.0594V5.49418V5.43831C49.0594 5.43831 49.0594 5.36381 49.0594 5.32656C49.1821 5.02801 49.2665 4.71512 49.3107 4.39536C49.3618 3.87515 49.3618 3.35117 49.3107 2.83095V2.7937C49.2598 2.80778 49.2143 2.83701 49.1804 2.87751C48.9478 3.101 48.7524 3.28724 48.5663 3.48279C48.3073 3.74469 48.1129 4.06357 47.9988 4.41399C47.9172 4.62001 47.8864 4.8427 47.9091 5.06316C47.9317 5.28362 48.0072 5.49536 48.1291 5.68042C48.1547 5.71198 48.1688 5.75145 48.1688 5.79216C48.1688 5.83288 48.1547 5.87234 48.1291 5.90391V5.96909H48.0639L47.9802 5.92253C47.8267 5.79253 47.7084 5.62603 47.6359 5.43831C47.6322 5.40738 47.6322 5.37612 47.6359 5.34519C47.6217 5.28625 47.5929 5.23183 47.5522 5.18688C47.5277 5.18187 47.5023 5.18187 47.4778 5.18688L47.2731 5.31725C47.1013 5.42451 46.9366 5.54271 46.78 5.67111C46.0389 6.23751 45.469 6.99813 45.1332 7.86874C44.846 8.62521 44.7564 9.44248 44.8727 10.2433C44.9417 10.8264 45.1184 11.3916 45.3937 11.9101C45.5333 12.1709 45.6728 12.4316 45.831 12.683C45.9892 12.9345 46.1566 13.1859 46.3148 13.4187C46.3687 13.4968 46.4311 13.5686 46.5009 13.6329L46.6125 13.726C46.8136 13.9227 47.0351 14.0975 47.2731 14.2475C47.308 14.267 47.3394 14.2922 47.3661 14.3219L47.422 14.3871L47.5894 14.5641L46.8916 14.4244C46.8866 14.449 46.8866 14.4743 46.8916 14.4989C47.0698 14.8352 47.2162 15.1875 47.3289 15.5511C47.5208 16.1611 47.4978 16.8185 47.2638 17.4135C47.0201 18.058 46.6318 18.6379 46.1287 19.1083C45.9407 19.2707 45.7886 19.4705 45.6821 19.695C45.5817 19.8862 45.4977 20.0855 45.4309 20.2909C45.219 20.9202 45.1244 21.583 45.1518 22.2465C45.1569 22.3178 45.1569 22.3893 45.1518 22.4606C45.1518 22.4606 45.1518 22.5444 45.1518 22.591V22.7866L45.0215 22.6469C44.9302 22.5466 44.8746 22.4189 44.8634 22.2837C44.7558 21.6394 44.7558 20.9818 44.8634 20.3375C44.868 20.3035 44.868 20.2691 44.8634 20.2351C44.8338 20.2507 44.8083 20.273 44.7889 20.3002C44.551 20.5624 44.2788 20.7911 43.9795 20.98C43.5461 21.3082 43.1498 21.6829 42.7979 22.0975C42.5211 22.3712 42.3077 22.7023 42.1727 23.0676C42.0377 23.4328 41.9843 23.8232 42.0164 24.2113C42.0499 24.59 42.1216 24.9644 42.2304 25.3287C42.4633 26.161 42.9318 26.9081 43.5794 27.4798L43.6911 27.5729L43.9609 27.815C44.1154 27.9381 44.217 28.1158 44.2447 28.3115C44.2724 28.5072 44.2241 28.7061 44.1098 28.8673C43.9946 29.0791 43.806 29.2414 43.5794 29.3236C43.3517 29.398 43.1183 29.4541 42.8816 29.4912H42.7886C42.6515 29.5177 42.5174 29.5583 42.3885 29.6122C42.3278 29.6351 42.2729 29.6712 42.2279 29.7179C42.1828 29.7646 42.1487 29.8208 42.128 29.8823C42.0732 30.0898 42.0732 30.308 42.128 30.5155C42.1817 30.7543 42.29 30.9775 42.4444 31.1673" fill="#D39C62"/>
<path d="M56.7539 34.1471C56.5044 34.0606 56.2956 33.8848 56.1678 33.6535C56.0796 33.5056 55.9578 33.3804 55.8124 33.2882C55.6669 33.196 55.5018 33.1393 55.3304 33.1228C55.1673 33.0959 55.0026 33.0804 54.8373 33.0762C54.7675 33.0789 54.6979 33.0661 54.6336 33.0387C54.5692 33.0113 54.5117 32.9701 54.4652 32.9179L54.3163 32.7596C54.214 32.6572 54.1209 32.5454 54.0279 32.4337C53.9348 32.3219 53.7767 32.1171 53.6557 31.9588C53.5348 31.8005 53.5162 31.7725 53.4417 31.6887C53.2743 31.4652 53.1161 31.2417 52.9672 31.0183C52.7067 30.6396 52.4174 30.2816 52.102 29.9474C52.0332 29.8762 51.9947 29.781 51.9947 29.682C51.9947 29.5829 52.0332 29.4878 52.102 29.4166C52.2612 29.1718 52.4786 28.9702 52.7346 28.8299L53.4603 28.4947L53.8511 28.3364L54.1767 28.1967C54.5172 28.042 54.8311 27.8346 55.1071 27.5821C55.3122 27.4097 55.481 27.1982 55.604 26.9601C55.727 26.722 55.8016 26.4618 55.8235 26.1946C55.8556 25.9632 55.8409 25.7277 55.7801 25.5022C55.7194 25.2766 55.6139 25.0656 55.47 24.8816C55.3425 24.7246 55.2025 24.5782 55.0513 24.444C54.6413 24.0814 54.1683 23.7973 53.6557 23.6059C53.4045 23.5035 53.0975 23.3917 52.7998 23.2893C52.5321 23.1858 52.2422 23.1537 51.9584 23.1962C51.6746 23.2386 51.4066 23.3541 51.1809 23.5314C51.0686 23.6192 50.9469 23.6941 50.818 23.7549C50.3763 23.9622 49.9685 24.2354 49.6085 24.565C49.2673 24.8555 48.9861 25.2097 48.7805 25.608C48.6913 25.8008 48.6167 26 48.5572 26.2039C48.5227 26.323 48.5124 26.4478 48.5268 26.5709C48.5412 26.694 48.58 26.8131 48.6409 26.921C48.6874 27.0141 48.734 27.0513 48.8084 27.0607L48.9945 27.1072C49.1232 27.135 49.2538 27.1537 49.3852 27.1631C49.9317 27.2069 50.4814 27.185 51.0227 27.0979C51.4611 27.038 51.8937 26.9415 52.316 26.8092V26.7627H52.3904H52.4648V26.8279C52.4725 26.8455 52.4765 26.8645 52.4765 26.8837C52.4765 26.903 52.4725 26.922 52.4648 26.9396C52.4217 26.98 52.3711 27.0116 52.316 27.0327C51.8529 27.2747 51.3531 27.4383 50.8366 27.5169C50.7665 27.5226 50.6976 27.5383 50.632 27.5635C50.5632 27.9518 50.4311 28.3261 50.2412 28.6716V28.7647C50.1761 28.9044 50.1016 29.0348 50.0458 29.1745C49.9984 29.2972 49.9671 29.4255 49.9528 29.5563C49.9348 29.6642 49.9546 29.7751 50.0088 29.8701C50.0631 29.9651 50.1484 30.0385 50.2505 30.0777H50.3807H50.4738C50.7927 30.1918 51.0698 30.3994 51.2689 30.6735C51.4681 30.9476 51.5801 31.2755 51.5903 31.6142C51.6238 31.8345 51.6004 32.0598 51.5222 32.2685C51.444 32.4771 51.3137 32.6622 51.1437 32.8062C51.1437 32.8062 51.1437 32.8062 51.0878 32.8527C51.1215 32.861 51.1566 32.861 51.1902 32.8527C51.3579 32.8272 51.5209 32.777 51.674 32.7037L51.7949 32.6572H51.8601H51.9531V32.9272C51.9531 33.0483 51.9531 33.1693 51.9531 33.2811C51.9569 33.4447 52.0017 33.6048 52.0834 33.7467C52.2515 34.0356 52.5097 34.2613 52.8184 34.3892C52.7753 34.2907 52.7621 34.1818 52.7803 34.0759C52.7984 33.9699 52.8473 33.8717 52.9207 33.7932C52.985 33.7316 53.0654 33.6892 53.1526 33.6711C53.2398 33.653 53.3303 33.6598 53.4138 33.6908C53.4902 33.7159 53.5608 33.756 53.6215 33.8088C53.6822 33.8616 53.7318 33.9259 53.7674 33.9981C53.8475 34.1435 53.8832 34.3093 53.8699 34.4749C53.8567 34.6404 53.7952 34.7985 53.6929 34.9293C53.6581 34.9782 53.6393 35.0368 53.6393 35.0969C53.6393 35.157 53.6581 35.2156 53.6929 35.2645H54H56.5586C56.5524 35.056 56.4696 34.857 56.326 34.7058C56.2794 34.6406 56.2329 34.5754 56.1957 34.5103L56.1306 34.4171H56.3353H56.512C56.5994 34.4062 56.68 34.3647 56.7396 34.2999C56.7992 34.2351 56.834 34.1513 56.8377 34.0633" fill="#D39C62"/>
<path d="M45.9241 33.7095C45.8234 33.5604 45.7538 33.3926 45.7194 33.216C45.6977 33.0834 45.6977 32.9482 45.7194 32.8156C45.7257 32.7203 45.7575 32.6285 45.8115 32.5499C45.8656 32.4712 45.9398 32.4086 46.0264 32.3686C46.1165 32.3321 46.2145 32.3198 46.3108 32.3329C46.407 32.346 46.4982 32.3839 46.5753 32.4431L46.6591 32.5176C46.6533 32.4409 46.6312 32.3664 46.5943 32.2989C46.5574 32.2315 46.5065 32.1727 46.4451 32.1265C46.3491 32.0608 46.2357 32.0251 46.1194 32.0241H45.9892C45.887 32.0456 45.7904 32.0882 45.7055 32.1491C45.6206 32.21 45.5493 32.2879 45.4961 32.3779C45.3738 32.5565 45.3008 32.7641 45.2845 32.98C45.2681 33.1958 45.309 33.4122 45.403 33.6071C45.556 33.932 45.7637 34.2281 46.0171 34.4824C46.2801 34.748 46.6168 34.9283 46.9835 34.9997C47.3503 35.0711 47.73 35.0304 48.0733 34.8828C48.1857 34.8322 48.3047 34.7978 48.4268 34.7804C48.7719 34.7249 49.0943 34.5732 49.3572 34.3427C49.6088 34.1153 49.8169 33.844 49.9713 33.5419C50.0384 33.4198 50.0855 33.2878 50.1108 33.1508C50.2279 32.5076 50.1019 31.8438 49.7573 31.2884C49.3808 30.6716 48.8167 30.1919 48.1477 29.9195C48.0487 29.8784 47.9459 29.8472 47.8407 29.8264C48.2711 30.0482 48.6612 30.3409 48.9944 30.6924C49.4486 31.1545 49.7282 31.7602 49.7852 32.4058C49.8102 32.7096 49.7455 33.014 49.5991 33.2812C49.5849 33.3117 49.5623 33.3375 49.534 33.3557L49.4037 33.4674V33.2346C49.3991 33.2006 49.3991 33.1662 49.4037 33.1322C49.4956 32.6001 49.3968 32.0526 49.1246 31.5864C48.9961 31.3652 48.8563 31.1508 48.7059 30.9439C48.3217 30.4172 47.7654 30.0416 47.1336 29.8823C46.8954 29.8115 46.6466 29.7831 46.3986 29.7985C46.2902 29.799 46.1865 29.8426 46.1101 29.9195C46.0078 30.022 45.8962 30.1058 45.7938 30.1989L45.6729 30.292L44.8634 30.9904C44.8634 30.9904 44.7983 31.0556 44.8634 31.1022H44.9472C45.2089 31.0948 45.4707 31.1135 45.7287 31.158C46.1908 31.237 46.6295 31.4183 47.0126 31.6888C47.2572 31.8751 47.439 32.1318 47.5336 32.4245C47.5789 32.5524 47.5958 32.6887 47.5829 32.8238C47.57 32.9589 47.5278 33.0896 47.4592 33.2067C47.4387 33.2496 47.4095 33.2878 47.3735 33.3189C47.3374 33.35 47.2954 33.3733 47.2499 33.3873C47.2045 33.4013 47.1566 33.4057 47.1094 33.4002C47.0621 33.3948 47.0165 33.3796 46.9754 33.3557C46.9049 33.3135 46.83 33.2792 46.7521 33.2532C46.6979 33.224 46.637 33.2095 46.5754 33.2111C46.5138 33.2127 46.4538 33.2304 46.4011 33.2624C46.3485 33.2944 46.3051 33.3396 46.2753 33.3935C46.2455 33.4474 46.2302 33.5082 46.2311 33.5698C46.2311 33.5698 46.2311 33.5698 46.2311 33.6443C46.2311 33.7188 46.1753 33.7002 46.1474 33.7095H46.0915H45.9241Z" fill="#D39C62"/>
<path d="M54.3907 11.7424L54.1675 11.9938L54.093 12.0869C54.6415 12.7225 55.008 13.4947 55.1537 14.3218C55.6273 13.5024 56.0409 12.6497 56.3911 11.7703H56.4841C56.5082 11.7618 56.5345 11.7618 56.5586 11.7703C57.0015 11.9629 57.4806 12.0582 57.9635 12.0497C58.1818 12.0472 58.3999 12.066 58.6147 12.1056C58.8173 12.1343 59.0059 12.2255 59.1544 12.3663C59.3045 12.4848 59.4145 12.6467 59.4694 12.8299C59.5244 13.0132 59.5216 13.209 59.4614 13.3906C59.4564 13.4057 59.4564 13.422 59.4614 13.4372H59.5172H59.5823L59.694 13.3534L59.7591 13.2882L59.8987 13.0181L59.9638 12.9064V12.8133L60.0382 12.8878C60.0517 12.8939 60.0637 12.903 60.0733 12.9142C60.0829 12.9255 60.09 12.9387 60.094 12.9529C60.1245 13.0251 60.1402 13.1027 60.1402 13.1811C60.1402 13.2595 60.1245 13.337 60.094 13.4092V13.493C60.0804 13.5544 60.0804 13.6179 60.094 13.6793H60.4755C60.736 13.6793 61.0151 13.6793 61.285 13.6793C61.5083 13.6793 61.7408 13.6793 61.9641 13.6793H62.2154C62.1625 13.589 62.1002 13.5047 62.0293 13.4279C61.9222 13.3036 61.8372 13.1619 61.7781 13.0088L61.7315 12.8878H61.9455H62.0572H62.1688L62.541 12.9343L62.3084 12.7015C62.2416 12.6377 62.1794 12.5693 62.1223 12.4967L61.9828 12.3477C61.7036 12.0537 61.3499 11.8412 60.9593 11.7331L60.6895 11.6679L60.3546 11.5748L59.9731 11.4723C59.6866 11.4111 59.4064 11.3238 59.1357 11.2116C58.8561 11.1668 58.5895 11.062 58.3542 10.9043H58.2984C57.9635 10.7181 57.6533 10.5411 57.368 10.3735C57.1255 10.1929 56.8329 10.092 56.5306 10.0848C56.4209 9.96393 56.2837 9.87129 56.1306 9.8148C56.041 9.78296 55.9435 9.78119 55.8529 9.80975C55.7622 9.83831 55.6833 9.89566 55.6282 9.9731C55.543 10.0645 55.4935 10.1835 55.4886 10.3083C55.4786 10.4824 55.4135 10.6488 55.3025 10.7832C55.163 10.9602 55.0234 11.1557 54.8652 11.3327C54.7071 11.5096 54.6233 11.612 54.4931 11.7424" fill="#D39C62"/>
<path d="M43.7286 10.0663C43.7746 10.0976 43.8128 10.139 43.8402 10.1875C43.8676 10.2359 43.8836 10.29 43.8868 10.3456C43.8816 10.4076 43.8816 10.4699 43.8868 10.5319C43.8824 10.5876 43.8824 10.6437 43.8868 10.6995C43.9085 10.8428 43.9459 10.9834 43.9984 11.1185C44.335 11.9618 44.7427 12.7749 45.2172 13.5489C45.3297 13.7221 45.4173 13.9102 45.4777 14.1077C45.547 14.3606 45.547 14.6276 45.4777 14.8806C45.4361 15.0072 45.3526 15.1159 45.2409 15.1887C45.1293 15.2614 44.9963 15.294 44.8637 15.281C44.743 15.2684 44.6305 15.2141 44.5456 15.1274C44.4607 15.0407 44.4087 14.927 44.3985 14.8061V14.7502C44.3713 14.7673 44.3515 14.7938 44.3427 14.8247C44.2853 14.9238 44.2491 15.0337 44.2362 15.1474C44.2234 15.2612 44.2343 15.3765 44.2682 15.4858C44.3242 15.7032 44.4419 15.8998 44.607 16.0518C44.772 16.2038 44.9775 16.3047 45.1986 16.3425H45.3847H45.4777C45.4991 16.3983 45.5052 16.4588 45.4954 16.5178C45.4856 16.5767 45.4602 16.6319 45.4219 16.6778C45.3376 16.7968 45.2167 16.8851 45.0777 16.9292C44.9253 16.9841 44.7579 16.9801 44.6082 16.9181C44.4586 16.8561 44.3373 16.7406 44.2682 16.594C44.259 16.6211 44.259 16.6506 44.2682 16.6778C44.2755 16.9917 44.3759 17.2964 44.5566 17.5531C44.6235 17.6523 44.7088 17.7376 44.8079 17.8045C44.8879 17.8683 44.9825 17.9111 45.0833 17.929C45.184 17.9469 45.2876 17.9393 45.3847 17.9069C45.6354 17.8453 45.866 17.7203 46.0546 17.5438C46.2383 17.3782 46.3873 17.1776 46.4927 16.9538C46.5982 16.73 46.658 16.4873 46.6686 16.2401C46.7039 15.6656 46.6018 15.0911 46.3709 14.5639C46.1139 13.9596 45.8024 13.3798 45.4405 12.8319C45.1422 12.3918 44.8867 11.9241 44.6776 11.4351C44.3141 10.5908 44.167 9.66893 44.2496 8.75326C44.3677 7.61503 44.847 6.5446 45.6173 5.69892C45.9824 5.30169 46.426 4.98461 46.9198 4.76773C47.0088 4.74289 47.0879 4.69105 47.1463 4.61933C47.2046 4.54762 47.2393 4.45957 47.2455 4.36731H47.078C46.5137 4.47086 45.9778 4.69303 45.5057 5.01915C45.2133 5.20665 44.9707 5.46226 44.7986 5.76411C44.659 5.99691 44.5287 6.22971 44.4264 6.43457C44.3316 6.61503 44.2866 6.81756 44.2961 7.02123C44.3102 7.10757 44.3102 7.19562 44.2961 7.28196C44.2915 7.35068 44.2726 7.41766 44.2405 7.4786C44.2085 7.53954 44.164 7.5931 44.1101 7.63582C44.0597 7.67613 43.9977 7.699 43.9333 7.701C43.8969 7.71187 43.8581 7.71187 43.8216 7.701H43.7658V7.44958C43.7658 7.44958 43.6821 7.44958 43.617 7.44958C43.5615 7.47554 43.5131 7.51448 43.4759 7.5631C43.4386 7.61173 43.4136 7.66861 43.403 7.72894C43.3773 7.83358 43.3783 7.94301 43.4059 8.04715C43.4336 8.1513 43.487 8.24681 43.5611 8.32491C43.5882 8.34734 43.6132 8.37228 43.6356 8.3994L43.6914 8.45528L43.4588 8.68807C43.3363 8.79505 43.2597 8.94511 43.2448 9.10711C43.2228 9.27845 43.2589 9.45221 43.3471 9.60065C43.4219 9.75056 43.5301 9.88121 43.6635 9.98244" fill="#D39C62"/>
<path d="M42.1374 28.4854L42.6212 28.5878L43.1236 28.6716H43.2911L43.5609 28.3457H43.4865C43.4491 28.3296 43.4146 28.3076 43.3841 28.2805C42.8099 27.951 42.3394 27.4671 42.0258 26.8837C41.7067 26.3121 41.5038 25.6829 41.4287 25.0325C41.3537 24.382 41.408 23.7231 41.5885 23.0938C41.0376 23.3896 40.5752 23.8266 40.2487 24.3602C40.166 24.5118 40.0974 24.6708 40.044 24.8351C39.8313 25.5578 39.9046 26.3347 40.2487 27.0048C40.2791 27.0718 40.3133 27.1371 40.351 27.2003C40.4 27.2844 40.4435 27.3715 40.4813 27.4611C40.5551 27.6252 40.6204 27.793 40.6767 27.9639C40.7434 28.1771 40.7234 28.408 40.6209 28.6065C40.5795 28.6958 40.514 28.7719 40.4319 28.8262C40.3497 28.8805 40.2541 28.9108 40.1557 28.9137C40.0568 28.9179 39.9589 28.8939 39.8732 28.8444C39.7875 28.795 39.7177 28.7221 39.6719 28.6344C39.6228 28.5483 39.5912 28.4534 39.5788 28.355C39.5488 28.1817 39.5818 28.0033 39.6719 27.8522L39.5974 27.9267C39.5017 28.0358 39.4345 28.167 39.402 28.3085C39.3457 28.5642 39.3764 28.8315 39.4894 29.0678C39.6023 29.304 39.791 29.4957 40.0254 29.6121C40.106 29.6568 40.1945 29.6853 40.2859 29.696C40.65 29.7346 41.0146 29.6274 41.3001 29.398C41.5449 29.2186 41.7115 28.9519 41.7652 28.653C41.76 28.6097 41.76 28.5659 41.7652 28.5226V28.4668V28.4016H41.8676L42.1002 28.4481" fill="#D39C62"/>
<path d="M92.8719 29.873C92.8516 29.8127 92.8187 29.7574 92.7754 29.7108C92.7321 29.6642 92.6793 29.6275 92.6207 29.6029C92.4886 29.549 92.3514 29.5085 92.2113 29.4819H92.1183C91.882 29.4426 91.6488 29.3866 91.4205 29.3143C91.1962 29.2372 91.0099 29.0773 90.8994 28.8673C90.7924 28.712 90.7482 28.5217 90.7758 28.3351C90.8034 28.1484 90.9008 27.9792 91.0483 27.8616C91.1284 27.7739 91.2155 27.6929 91.3088 27.6195L91.4298 27.5264C92.0699 26.9483 92.537 26.2036 92.7788 25.3753C92.889 25.0117 92.9577 24.6369 92.9835 24.2578C93.0176 23.8676 92.9662 23.4745 92.8328 23.1062C92.6995 22.7379 92.4873 22.4032 92.2113 22.1254C91.8225 21.7358 91.3955 21.3864 90.9367 21.0825C90.6374 20.8935 90.3651 20.6648 90.1272 20.4027C90.11 20.3736 90.0839 20.3507 90.0528 20.3375C90.0482 20.3715 90.0482 20.4059 90.0528 20.4399C90.1695 21.0834 90.1695 21.7427 90.0528 22.3861C90.0461 22.5225 89.9899 22.6516 89.8946 22.7493L89.7644 22.889V22.3489C89.7964 21.6852 89.7017 21.0215 89.4852 20.3934C89.4175 20.1897 89.3367 19.9906 89.2433 19.7974C89.1305 19.5769 88.9792 19.3782 88.7968 19.2107C88.2905 18.743 87.9017 18.1623 87.6617 17.516C87.4246 16.922 87.3983 16.2646 87.5872 15.6536C87.7032 15.2897 87.8527 14.9374 88.0338 14.6013V14.5268L87.3453 14.6665L87.5128 14.4896L87.5686 14.4244C87.5919 14.3948 87.6202 14.3695 87.6524 14.3499C87.8933 14.2001 88.1179 14.0253 88.3222 13.8284L88.4246 13.7353C88.4972 13.6738 88.5599 13.6016 88.6107 13.5211C88.7874 13.279 88.9456 13.0369 89.1038 12.7855C89.2619 12.534 89.4015 12.264 89.5411 12.0126C89.866 11.3985 90.0573 10.7225 90.1022 10.0291C90.1471 9.33573 90.0446 8.64068 89.8016 7.98979C89.4692 7.11983 88.9024 6.35912 88.1641 5.79216C88.0026 5.66587 87.835 5.54777 87.6617 5.43831L87.457 5.30794C87.4324 5.30292 87.4071 5.30292 87.3826 5.30794C87.3449 5.35364 87.3193 5.40807 87.3081 5.46624C87.3044 5.49717 87.3044 5.52843 87.3081 5.55936C87.2357 5.74708 87.1173 5.91358 86.9639 6.04359L86.8801 6.09015H86.815V6.02496C86.7893 5.9934 86.7753 5.95393 86.7753 5.91322C86.7753 5.87251 86.7893 5.83304 86.815 5.80148C86.9391 5.61738 87.0159 5.40549 87.0386 5.18459C87.0614 4.96368 87.0293 4.74058 86.9453 4.53504C86.8342 4.18537 86.643 3.8665 86.387 3.60384L85.7637 2.99857C85.7586 2.95183 85.7401 2.90758 85.7104 2.8712C85.6806 2.83482 85.641 2.80789 85.5962 2.7937V2.92407C85.5449 3.44428 85.5449 3.96827 85.5962 4.48848C85.6497 4.80627 85.7338 5.11813 85.8474 5.41968V5.53143V5.5873V5.68042H85.8753C85.8621 5.691 85.8457 5.69676 85.8288 5.69676C85.8119 5.69676 85.7955 5.691 85.7823 5.68042C85.5398 5.46087 85.379 5.16535 85.3264 4.84234C85.3264 4.72128 85.3264 4.59092 85.2706 4.4233C85.2446 4.06559 85.0812 3.73186 84.8147 3.4921C84.7325 3.41603 84.6548 3.33519 84.5821 3.24999C84.5467 3.20217 84.5061 3.15845 84.4611 3.11962C84.4611 3.11962 84.4611 3.11962 84.3867 3.05444C84.3844 3.06987 84.3844 3.08556 84.3867 3.101V3.22205C84.3309 3.4176 84.2657 3.61316 84.2285 3.81802C84.1726 4.0569 84.1726 4.30548 84.2285 4.54436V4.63748C84.2611 4.74776 84.3333 4.84208 84.4312 4.90226C84.5291 4.96244 84.6458 4.98421 84.7588 4.9634H84.9542L84.8333 5.11239V5.16826C84.8333 5.16826 84.8333 5.24276 84.7495 5.26138C84.6233 5.33031 84.4801 5.36168 84.3367 5.35178C84.1932 5.34188 84.0556 5.29112 83.9401 5.20551C83.8516 5.14882 83.7816 5.06752 83.7386 4.97158C83.6957 4.87564 83.6816 4.76923 83.6982 4.66541V4.56298C83.6376 4.55541 83.576 4.56152 83.5181 4.58086C83.4601 4.60019 83.4072 4.63226 83.3633 4.67472C83.3032 4.71656 83.2541 4.77225 83.2201 4.83708C83.1861 4.90191 83.1682 4.97398 83.1679 5.0472C83.1514 5.18951 83.1514 5.33325 83.1679 5.47556C83.1741 5.54507 83.2046 5.61018 83.2539 5.65953C83.3032 5.70888 83.3682 5.73934 83.4377 5.7456C83.5392 5.76433 83.6432 5.76433 83.7447 5.7456L84.2285 5.5873H84.4332H84.5914H84.8054L84.6658 5.6618L84.61 5.72698C84.5858 5.76981 84.5504 5.80523 84.5076 5.82941L84.061 6.01565L83.875 6.09015H83.7819L83.5586 6.19258C83.4337 6.26069 83.3354 6.36895 83.2795 6.49987C83.261 6.55102 83.261 6.60703 83.2795 6.65818C83.2925 6.67917 83.3102 6.69684 83.3312 6.70978C83.3522 6.72271 83.3759 6.73055 83.4005 6.73267C83.496 6.77101 83.6026 6.77101 83.6982 6.73267L84.0331 6.5185C84.2228 6.44074 84.4348 6.43786 84.6265 6.51044C84.8181 6.58303 84.9752 6.72568 85.0659 6.9096C85.0752 6.93994 85.0752 6.97238 85.0659 7.00272V7.11447H84.9914C84.7514 7.1272 84.5167 7.19068 84.303 7.30071H84.2471C84.2164 7.26791 84.1993 7.22462 84.1993 7.17965C84.1993 7.13468 84.2164 7.09139 84.2471 7.05859C84.1083 7.01176 83.958 7.01176 83.8191 7.05859C83.7832 7.08372 83.7417 7.0997 83.6982 7.10515H83.6238C83.5236 7.15407 83.4097 7.16688 83.3012 7.14143C83.1927 7.11598 83.0963 7.05383 83.0283 6.96547C82.9488 6.88904 82.8946 6.79005 82.8729 6.68183C82.8513 6.57362 82.8633 6.46137 82.9074 6.36019C82.9531 6.26503 83.0127 6.17717 83.0841 6.09946C83.0113 6.08295 82.9354 6.0854 82.8637 6.1066C82.792 6.12779 82.727 6.16701 82.6748 6.22052C82.6234 6.26172 82.5866 6.31836 82.5699 6.38207C82.5531 6.44579 82.5573 6.5132 82.5817 6.57437C82.5922 6.62087 82.6112 6.66505 82.6375 6.70474V6.76992C82.6243 6.79324 82.605 6.81254 82.5817 6.82579C82.2522 7.00308 81.9686 7.25499 81.7537 7.56144C81.676 7.67758 81.5921 7.78948 81.5025 7.89667C81.4593 7.96101 81.3988 8.01178 81.328 8.0431C81.2572 8.07441 81.179 8.08499 81.1024 8.0736C80.9321 8.05691 80.762 8.10698 80.6279 8.21328C80.5552 8.25915 80.4923 8.31897 80.4428 8.38929C80.3933 8.45961 80.3582 8.53905 80.3395 8.62301C80.3114 8.69785 80.311 8.78027 80.3383 8.8554C80.3656 8.93053 80.4188 8.99343 80.4883 9.03274L80.5814 9.08861H80.6465L80.7489 9.15379L80.6 9.25622L80.5256 9.3121C80.4616 9.34742 80.4118 9.40383 80.3847 9.47173C80.3575 9.53963 80.3547 9.61484 80.3767 9.68458C80.4094 9.75934 80.4647 9.82198 80.5348 9.86373C80.6048 9.90548 80.6862 9.92423 80.7675 9.91738L80.9349 9.87082H81.028L81.2327 9.97325L81.4653 9.81494L81.8002 9.60077C81.8573 9.56925 81.903 9.52032 81.9304 9.46109C81.9701 9.38845 82.0277 9.3272 82.0977 9.28318C82.1678 9.23917 82.2479 9.21386 82.3305 9.20967C82.4057 9.1952 82.4835 9.20554 82.5523 9.23912C82.6211 9.2727 82.6771 9.32772 82.712 9.39591C82.7483 9.464 82.7606 9.54232 82.7471 9.6183C82.7336 9.69428 82.6951 9.76353 82.6375 9.81494C82.5851 9.88207 82.5122 9.93023 82.4299 9.95208C82.3476 9.97393 82.2604 9.96828 82.1817 9.936H82.1165L81.5583 10.4482V10.532C81.5837 10.6208 81.6148 10.7079 81.6513 10.7927C81.6847 10.8661 81.7365 10.9296 81.8018 10.9769C81.867 11.0243 81.9434 11.0539 82.0235 11.0628C82.1018 11.0792 82.1827 11.0794 82.2611 11.0634C82.3395 11.0474 82.4138 11.0155 82.4794 10.9696C82.6293 10.8775 82.754 10.7495 82.8422 10.5972L82.9167 10.4575V10.3737H83.0934C83.2356 10.4118 83.3848 10.4157 83.5287 10.3849C83.6727 10.3542 83.8073 10.2897 83.9215 10.1967C84.1507 10.0154 84.4179 9.88807 84.703 9.82426C84.4422 9.59295 84.2356 9.30675 84.0983 8.98618C84.095 8.93346 84.095 8.88059 84.0983 8.82787C84.0874 8.80099 84.0874 8.77094 84.0983 8.74407V8.68819H84.1541C84.1898 8.69638 84.2233 8.71229 84.2522 8.73481C84.2812 8.75734 84.3048 8.78592 84.3216 8.81856V8.86512L84.4797 9.05136L84.7775 9.37728C84.9755 9.56312 85.2056 9.71141 85.4566 9.81494C85.5678 9.86467 85.6884 9.89007 85.8102 9.88944H85.8846C86.0935 9.90616 86.3035 9.87827 86.5008 9.80764C86.6981 9.737 86.8781 9.62523 87.029 9.47971C87.2099 9.31828 87.3339 9.10273 87.3826 8.86512L87.4663 8.49264C87.4663 8.41815 87.4663 8.35296 87.4663 8.28778C87.4663 8.23191 87.4663 8.12016 87.6338 8.11085H87.6989V8.17603C87.77 8.43467 87.7827 8.70591 87.736 8.97007C87.6894 9.23423 87.5845 9.48467 87.4291 9.7032C87.2827 9.90139 87.094 10.0644 86.8767 10.1804C86.6594 10.2964 86.419 10.3624 86.173 10.3737C85.8555 10.3974 85.5369 10.3464 85.2427 10.2247C85.186 10.1974 85.124 10.1833 85.0612 10.1833C84.9984 10.1833 84.9364 10.1974 84.8798 10.2247C84.7182 10.2793 84.5803 10.3878 84.489 10.532C84.443 10.6102 84.3812 10.6779 84.3075 10.7309C84.2338 10.7838 84.1498 10.8207 84.061 10.8393C83.5836 10.955 83.1168 11.1107 82.6655 11.3049C81.9233 11.6306 81.2811 12.148 80.8047 12.8041C80.4202 13.3092 80.1647 13.9005 80.0604 14.5268C80.0416 14.7032 80.0416 14.8812 80.0604 15.0576C80.0881 15.0615 80.1163 15.0615 80.1441 15.0576C80.7858 15.1532 81.3987 15.3884 81.9398 15.7467L82.0793 15.8305C82.0871 15.8063 82.0871 15.7802 82.0793 15.756L82.1351 15.5046L82.191 15.2345C82.3038 14.7925 82.5503 14.396 82.8966 14.0994C83.243 13.8027 83.6724 13.6203 84.1262 13.577C84.3953 13.5489 84.6665 13.5489 84.9356 13.577C85.0493 13.5784 85.1585 13.6215 85.2427 13.698V13.7446C85.2373 13.7683 85.2271 13.7906 85.2128 13.8102C85.1985 13.8297 85.1803 13.8461 85.1593 13.8584C85.1384 13.8706 85.1151 13.8784 85.0911 13.8812C85.067 13.8841 85.0426 13.882 85.0194 13.875C84.7508 13.8381 84.4785 13.8381 84.2099 13.875C83.9044 13.8956 83.6087 13.9914 83.349 14.1538C83.0893 14.3163 82.8737 14.5403 82.7213 14.8062C82.5573 15.0891 82.4707 15.4103 82.4701 15.7374C82.468 15.9934 82.5287 16.246 82.6469 16.473C82.6469 16.5382 82.6469 16.5941 82.7213 16.6686L82.7771 16.7803L82.8329 16.9107H82.6934C82.5754 16.8938 82.4652 16.8419 82.377 16.7617L82.2747 16.6872L81.9677 16.4823L81.1396 16.0819L80.6651 15.8771L79.9208 15.5325C79.6827 15.4336 79.423 15.3983 79.1672 15.4301C79.1114 15.4301 79.0741 15.4766 79.0276 15.5511C78.7876 15.8955 78.5966 16.2715 78.4601 16.6686C78.3346 17.0382 78.2625 17.4239 78.2461 17.8139C78.2461 18.0374 78.2461 18.2609 78.2461 18.4844V18.7265C78.2465 18.8943 78.2847 19.0598 78.3577 19.2107C78.4102 19.3104 78.4568 19.413 78.4973 19.518C78.5733 19.7007 78.6082 19.8978 78.5996 20.0954C78.5996 20.3003 78.5996 20.5237 78.5996 20.7472C78.6001 21.0817 78.6957 21.409 78.8753 21.6911C79.0549 21.9731 79.311 22.198 79.6138 22.3396C79.7308 22.3957 79.8522 22.4424 79.9766 22.4793L79.8836 22.4048C79.8298 22.3664 79.7799 22.3227 79.7347 22.2744C79.6146 22.1659 79.5248 22.0279 79.4742 21.874V21.7529H79.6045C79.7451 21.7799 79.8746 21.848 79.9766 21.9485C80.0883 22.0323 80.2092 22.1254 80.3302 22.1999L80.5721 22.3396H80.6279C80.6279 21.9298 80.6279 21.5294 80.6279 21.129V20.2816H80.5069H80.4232L80.1255 20.1978C79.9575 20.1412 79.8112 20.0339 79.7068 19.8905C79.6372 19.7874 79.6 19.6658 79.6 19.5413C79.6 19.4169 79.6372 19.2953 79.7068 19.1921C79.7315 19.1496 79.7595 19.1091 79.7905 19.0711C79.8557 19.0152 79.865 18.9407 79.7905 18.8103C79.7783 18.7644 79.7595 18.7205 79.7347 18.68V18.6334C79.67 18.5087 79.6486 18.3659 79.6739 18.2277C79.6992 18.0895 79.7697 17.9636 79.8743 17.8698C79.9796 17.7654 80.1046 17.6829 80.2419 17.627C80.3792 17.5711 80.5262 17.5428 80.6744 17.5439C80.9329 17.5335 81.1904 17.5812 81.428 17.6836C81.7072 17.8046 81.9863 17.9443 82.2654 18.0933C82.4015 18.1688 82.5241 18.2663 82.6282 18.382C82.7399 18.4937 82.8422 18.6055 82.9446 18.7265L83.1493 18.95C83.2609 19.0804 83.3819 19.1921 83.4935 19.3039C83.532 19.3299 83.5773 19.3438 83.6238 19.3438C83.6702 19.3438 83.7156 19.3299 83.754 19.3039C83.923 19.2477 84.0761 19.1519 84.2006 19.0245C84.392 18.8392 84.5494 18.6217 84.6658 18.382C84.7402 18.233 84.8054 18.0933 84.8705 17.9443L84.9821 17.7115C85.1185 17.4113 85.3185 17.1444 85.5683 16.9293C85.5988 16.9028 85.6342 16.8826 85.6725 16.8698C85.7108 16.857 85.7513 16.8519 85.7916 16.8548H85.9404L85.7358 17.1342H86.3033L86.1916 17.2645C86.1745 17.296 86.1487 17.3219 86.1172 17.339C86.0491 17.3849 85.9776 17.4253 85.9032 17.4601C85.5102 17.6506 85.2042 17.9835 85.0473 18.3913C84.9635 18.5589 84.8612 18.7358 84.7588 18.9128C84.5653 19.2046 84.3154 19.4547 84.0238 19.6484C83.9204 19.73 83.7926 19.7743 83.661 19.7743C83.5293 19.7743 83.4015 19.73 83.2981 19.6484L83.0748 19.4529C82.4886 18.9208 81.762 18.5685 80.9815 18.4379C80.8523 18.4143 80.7199 18.4143 80.5907 18.4379C80.5912 18.5397 80.6102 18.6407 80.6465 18.7358C80.8066 19.2232 80.9993 19.6992 81.2234 20.1606C81.5162 20.644 81.8945 21.07 82.3398 21.4177C82.8415 21.8914 83.3902 22.3126 83.9773 22.6748L84.2564 22.8517L84.6379 23.0845C85.0629 23.3531 85.4589 23.6652 85.8195 24.0157C86.3003 24.4838 86.6913 25.0362 86.9732 25.6453V25.5336C86.9689 25.4685 86.9689 25.4032 86.9732 25.338C86.999 25.2775 87.0208 25.2153 87.0383 25.1518C87.0383 25.068 87.0941 24.9749 87.1313 24.8818C87.1686 24.7886 87.2523 24.5931 87.336 24.4162C87.4198 24.2392 87.4849 24.1089 87.5686 23.9599C87.6524 23.8109 87.7361 23.6526 87.8198 23.5222L88.071 23.1125L88.1269 23.0287C88.206 22.9006 88.3032 22.7846 88.4153 22.6841L88.5362 22.5724V22.74C88.5418 22.8554 88.5195 22.9704 88.4711 23.0752L88.2757 23.6433C88.1269 24.0623 87.978 24.5 87.8384 24.9283V25.0587C87.6896 25.487 87.5407 25.9247 87.4198 26.3717C87.3497 26.6291 87.2938 26.8903 87.2523 27.1539V27.2936C87.2378 27.4048 87.2378 27.5175 87.2523 27.6288C87.2522 27.7868 87.2852 27.9431 87.3493 28.0874C87.4134 28.2318 87.5072 28.3611 87.6245 28.4669C87.882 28.7038 88.1661 28.9101 88.4711 29.0815L88.8805 29.3143L89.3085 29.5471C89.8049 29.8527 90.2352 30.2548 90.5738 30.7297C90.8411 31.0906 90.9579 31.5414 90.8994 31.9868C90.8319 32.5527 90.7104 33.1109 90.5366 33.6537C90.4771 33.8469 90.3992 34.034 90.304 34.2124C90.2116 34.3761 90.1058 34.5318 89.9877 34.678V34.7432C89.9372 34.8124 89.8692 34.867 89.7908 34.9013C89.7123 34.9357 89.6261 34.9486 89.5411 34.9387C89.3636 34.9272 89.186 34.9593 89.0238 35.0324C88.8616 35.1054 88.7197 35.2171 88.6107 35.3577L88.3967 35.6371C88.3003 35.796 88.1474 35.9124 87.9687 35.963L88.2013 36.2238C88.1774 36.3422 88.1334 36.4556 88.071 36.559C88.0221 36.6437 87.9845 36.7345 87.9594 36.829H88.0338H90.0156H90.5645H90.9087H91.2809C91.3794 36.6692 91.4634 36.5009 91.5321 36.3262C91.5421 36.311 91.5474 36.2932 91.5474 36.275C91.5474 36.2568 91.5421 36.239 91.5321 36.2238L91.4018 36.1306L91.2902 36.0561C91.2459 36.0326 91.2075 35.9991 91.1783 35.9583C91.149 35.9175 91.1295 35.8704 91.1214 35.8209C91.1133 35.7713 91.1168 35.7205 91.1315 35.6724C91.1463 35.6244 91.1719 35.5804 91.2065 35.544C91.276 35.4714 91.3623 35.4171 91.4577 35.3857C91.5441 35.3494 91.6396 35.3407 91.7312 35.3607C91.8227 35.3807 91.9059 35.4284 91.9694 35.4974C91.9734 35.479 91.9734 35.46 91.9694 35.4416C91.9694 35.2274 92.0345 34.9853 92.0624 34.7432C92.0757 34.6755 92.0757 34.6059 92.0624 34.5383L91.9787 34.2776L91.9043 34.0634C91.9043 34.0634 91.9043 33.9889 91.9043 33.9516C91.9088 33.9239 91.9088 33.8956 91.9043 33.8678V33.6537L92.0624 33.8026L92.1555 33.8864L92.2857 34.0075C92.3683 34.0839 92.4553 34.1554 92.5462 34.2217C92.307 33.7966 92.194 33.312 92.2206 32.8249C92.2129 32.5354 92.2284 32.2458 92.2671 31.9589C92.2895 31.6947 92.3936 31.4441 92.5648 31.2418C92.7229 31.0544 92.8317 30.8303 92.8812 30.59C92.9455 30.3838 92.9455 30.1629 92.8812 29.9568" fill="#D39C62"/>
<path d="M81.5863 31.6607L81.3816 31.9308L81.0094 32.4057L80.721 32.7316L80.5628 32.8899C80.5186 32.9424 80.4628 32.984 80.3999 33.0115C80.337 33.039 80.2685 33.0515 80.2 33.0482C80.044 33.0521 79.8885 33.0677 79.7348 33.0948C79.5618 33.1099 79.3948 33.1659 79.2476 33.2582C79.1005 33.3505 78.9772 33.4764 78.8881 33.6256C78.7661 33.858 78.5596 34.0346 78.3113 34.1191C78.3168 34.2065 78.3521 34.2894 78.4114 34.3538C78.4707 34.4182 78.5503 34.4603 78.6369 34.473H78.823H79.0184L78.9626 34.5661L78.823 34.7616C78.6794 34.9129 78.5966 35.1118 78.5904 35.3203H81.149H81.456C81.4909 35.2714 81.5096 35.2128 81.5096 35.1527C81.5096 35.0926 81.4909 35.034 81.456 34.9851C81.3527 34.8548 81.2904 34.6967 81.2771 34.5309C81.2639 34.365 81.3002 34.199 81.3816 34.0539C81.4148 33.9801 81.4636 33.9144 81.5246 33.8614C81.5856 33.8083 81.6575 33.7692 81.7351 33.7466C81.8178 33.7199 81.9061 33.7155 81.9911 33.734C82.076 33.7524 82.1546 33.793 82.2188 33.8516C82.283 33.9102 82.3306 33.9848 82.3568 34.0677C82.383 34.1507 82.3868 34.2391 82.3678 34.324C82.365 34.3643 82.365 34.4047 82.3678 34.445C82.6738 34.3166 82.9288 34.0908 83.0935 33.8025C83.1804 33.6624 83.2285 33.5017 83.2331 33.3369C83.2331 33.2158 83.2331 33.1041 83.2331 32.983C83.2284 32.9273 83.2284 32.8712 83.2331 32.8154V32.713H83.3354H83.3912L83.5215 32.7595C83.674 32.8341 83.8372 32.8844 84.0053 32.9085C84.0359 32.9157 84.0677 32.9157 84.0983 32.9085V32.862C83.9252 32.7203 83.792 32.5357 83.7121 32.3267C83.6321 32.1176 83.6081 31.8912 83.6424 31.67C83.6672 31.3606 83.7756 31.0638 83.9558 30.8112C84.1361 30.5587 84.3815 30.3598 84.6659 30.236H84.7589H84.8799C84.9816 30.1955 85.067 30.1223 85.1226 30.0279C85.1782 29.9335 85.2008 29.8232 85.1869 29.7145C85.1691 29.5834 85.1347 29.4551 85.0845 29.3327C85.0303 29.1928 84.9681 29.056 84.8985 28.923V28.8299C84.7093 28.4831 84.5744 28.1094 84.4984 27.7218C84.4363 27.6954 84.3703 27.6797 84.303 27.6752H84.2472C83.7308 27.5965 83.2309 27.4329 82.7679 27.191C82.7166 27.1677 82.6695 27.1362 82.6283 27.0979C82.6138 27.062 82.6138 27.0219 82.6283 26.9861V26.9209H82.7027H82.7679V26.9675C83.1898 27.1007 83.6225 27.1973 84.0611 27.2562C84.6024 27.3434 85.1521 27.3653 85.6986 27.3213L86.0894 27.2655L86.2754 27.2189C86.3406 27.2189 86.3871 27.2189 86.4429 27.0792C86.5581 26.8584 86.5847 26.602 86.5173 26.3622C86.4658 26.1557 86.3909 25.9557 86.2941 25.7662C86.092 25.3683 85.8138 25.0139 85.4753 24.7233C85.1153 24.3936 84.7075 24.1205 84.2658 23.9131C84.1339 23.8526 84.0091 23.7776 83.8936 23.6897C83.6785 23.4688 83.4055 23.3132 83.1059 23.2407C82.8064 23.1682 82.4925 23.1818 82.2003 23.2799C81.8933 23.3824 81.5956 23.4941 81.3351 23.5965C80.8253 23.788 80.3553 24.0722 79.9488 24.4346C79.7922 24.5662 79.6489 24.7128 79.5208 24.8723C79.2338 25.2458 79.1067 25.718 79.1672 26.1853C79.1909 26.453 79.2672 26.7134 79.3917 26.9515C79.5163 27.1896 79.6866 27.4008 79.893 27.5728C80.167 27.8277 80.4814 28.0353 80.8233 28.1874L81.1583 28.327L81.5397 28.4853C81.7909 28.5878 82.0422 28.7088 82.2654 28.8206C82.5215 28.9608 82.7389 29.1624 82.8981 29.4072C82.9669 29.4784 83.0054 29.5736 83.0054 29.6726C83.0054 29.7717 82.9669 29.8668 82.8981 29.938C82.5963 30.2685 82.3224 30.6236 82.0794 30.9996L81.5956 31.67" fill="#D39C62"/>
<path d="M85.4195 33.2345C85.2758 32.9665 85.2143 32.662 85.2427 32.3592C85.2997 31.7135 85.5793 31.1078 86.0336 30.6458C86.3664 30.2989 86.7567 30.0122 87.1872 29.7984C87.0787 29.8178 86.9726 29.849 86.8709 29.8915C86.202 30.1638 85.6378 30.6436 85.2613 31.2604C84.9199 31.817 84.7973 32.4807 84.9171 33.1228C84.9436 33.2582 84.9874 33.3896 85.0473 33.5139C85.2054 33.8161 85.4165 34.0874 85.6707 34.3147C85.9336 34.5451 86.2561 34.6968 86.6011 34.7524C86.7259 34.771 86.8478 34.8054 86.9639 34.8548C87.3061 35.0003 87.6839 35.0399 88.0487 34.9686C88.4135 34.8972 88.7486 34.7181 89.0108 34.4544C89.2672 34.2026 89.4753 33.9059 89.6249 33.5791C89.7175 33.3842 89.7584 33.1688 89.7438 32.9535C89.7291 32.7382 89.6593 32.5303 89.5411 32.3499C89.4879 32.2599 89.4166 32.182 89.3317 32.1211C89.2468 32.0602 89.1502 32.0176 89.048 31.996C88.9718 31.9753 88.8919 31.9715 88.814 31.9851C88.7362 31.9986 88.6622 32.0292 88.5974 32.0745C88.5326 32.1198 88.4786 32.1787 88.4391 32.2473C88.3996 32.3158 88.3756 32.3921 88.3688 32.4709L88.4526 32.3964C88.5278 32.3372 88.6175 32.2991 88.7123 32.286C88.8071 32.2729 88.9037 32.2853 88.9922 32.3219C89.0794 32.3611 89.1542 32.4235 89.2084 32.5023C89.2625 32.5812 89.2939 32.6734 89.2992 32.7689C89.3214 32.9015 89.3214 33.0368 89.2992 33.1693C89.2619 33.3466 89.1892 33.5145 89.0852 33.6629H89.0294C89.0294 33.6629 88.9643 33.6629 88.9457 33.5977C88.9417 33.573 88.9417 33.5479 88.9457 33.5232C88.9405 33.4621 88.9219 33.403 88.8914 33.3499C88.8608 33.2968 88.819 33.2511 88.7689 33.2159C88.7151 33.1902 88.6563 33.1769 88.5968 33.1769C88.5372 33.1769 88.4784 33.1902 88.4247 33.2159C88.3444 33.2433 88.2665 33.2776 88.1921 33.3183C88.1517 33.3421 88.1068 33.3572 88.0602 33.3626C88.0136 33.3679 87.9664 33.3634 87.9217 33.3494C87.877 33.3353 87.8357 33.3121 87.8005 33.281C87.7654 33.25 87.7371 33.212 87.7176 33.1693C87.6489 33.0523 87.6067 32.9216 87.5939 32.7865C87.581 32.6513 87.5978 32.5151 87.6431 32.3871C87.7342 32.0951 87.9129 31.8383 88.1548 31.6515C88.5397 31.3842 88.9776 31.2031 89.4388 31.1207C89.6968 31.0765 89.9586 31.0578 90.2203 31.0648H90.2482C90.259 31.0482 90.2648 31.0288 90.2648 31.0089C90.2648 30.9891 90.259 30.9697 90.2482 30.9531L89.4295 30.2547L89.3178 30.1616C89.2062 30.0684 89.1039 29.9846 89.0015 29.8822C88.9202 29.807 88.8144 29.764 88.7038 29.7611C88.4558 29.7458 88.207 29.7741 87.9688 29.8449C87.3369 30.0043 86.7807 30.3798 86.3964 30.9065C86.2436 31.1098 86.1067 31.3246 85.987 31.549C85.7061 32.012 85.6066 32.5628 85.7079 33.0948V33.4301L85.5777 33.3183C85.5462 33.3012 85.5204 33.2753 85.5032 33.2438" fill="#D39C62"/>
<path d="M72.4871 13.0368L72.8592 12.9902H72.9709H73.0918H73.2965V13.1113C73.2342 13.2648 73.1461 13.4065 73.036 13.5303C72.9679 13.6072 72.9086 13.6916 72.8592 13.7817H73.1011C73.3244 13.7817 73.557 13.7817 73.7803 13.7817C74.0501 13.7817 74.3292 13.7817 74.599 13.7817H74.9526C74.9702 13.7209 74.9702 13.6563 74.9526 13.5955V13.5117C74.9221 13.4395 74.9065 13.3619 74.9065 13.2835C74.9065 13.2052 74.9221 13.1276 74.9526 13.0554C74.9582 13.0405 74.9669 13.027 74.9781 13.0158C74.9894 13.0045 75.0029 12.9958 75.0177 12.9902L75.0922 12.9157V13.0088L75.148 13.1206C75.192 13.2136 75.2417 13.3037 75.2968 13.3906L75.3527 13.4558L75.4643 13.5396H75.5201H75.576V13.4931C75.5148 13.3124 75.5105 13.1172 75.5637 12.934C75.617 12.7508 75.7252 12.5884 75.8737 12.4687C76.0245 12.3313 76.212 12.2407 76.4133 12.208C76.6218 12.1674 76.8336 12.1456 77.046 12.1428C77.5318 12.1512 78.0139 12.056 78.4602 11.8635H78.6183C78.9614 12.7444 79.372 13.5974 79.8465 14.4149C79.9899 13.5577 80.3702 12.7577 80.9443 12.1056L80.8699 12.0124L80.6373 11.761L80.2651 11.3513C80.1163 11.1744 79.9767 10.9881 79.8372 10.8019C79.7219 10.67 79.6561 10.5021 79.6511 10.327C79.6418 10.2031 79.5929 10.0856 79.5115 9.99174C79.4554 9.91546 79.3764 9.85902 79.2861 9.83056C79.1958 9.80211 79.0988 9.80312 79.0091 9.83344C78.8543 9.88667 78.7163 9.97982 78.609 10.1035C78.3039 10.1106 78.0084 10.2113 77.7624 10.3922C77.5019 10.5598 77.1917 10.7367 76.832 10.9229H76.7762C76.5416 11.0819 76.2746 11.1869 75.9946 11.2302C75.7245 11.3437 75.4441 11.431 75.1573 11.491L74.7758 11.5934L74.4409 11.6865L74.1711 11.7517C73.7831 11.8596 73.4323 12.0722 73.1569 12.3663L73.0174 12.5153L72.8313 12.7202L72.5894 12.953" fill="#D39C62"/>
<path d="M88.0429 4.85159C88.5368 5.06847 88.9803 5.38555 89.3454 5.78279C90.1289 6.63827 90.6094 7.72787 90.7131 8.88368C90.7885 9.80268 90.6284 10.7257 90.2479 11.5655C90.0385 12.0525 89.7863 12.52 89.4943 12.9623C89.1294 13.5085 88.8178 14.0885 88.5639 14.6944C88.3367 15.2226 88.2348 15.7963 88.2662 16.3705C88.2781 16.6184 88.3393 16.8615 88.4464 17.0854C88.5534 17.3092 88.7041 17.5094 88.8896 17.6742C89.0731 17.8525 89.3013 17.9779 89.5501 18.0374C89.6488 18.0689 89.7537 18.0761 89.8558 18.0582C89.9578 18.0404 90.0541 17.9981 90.1363 17.9349C90.2334 17.8657 90.3183 17.7807 90.3875 17.6835C90.5692 17.4279 90.6668 17.1219 90.6666 16.8082C90.6666 16.7616 90.6666 16.7337 90.6666 16.7244C90.6144 16.8274 90.5364 16.9152 90.4403 16.9792C90.3442 17.0433 90.2332 17.0813 90.1181 17.0898C90.0029 17.0982 89.8876 17.0767 89.7832 17.0274C89.6788 16.978 89.5889 16.9025 89.5222 16.8082C89.4823 16.7633 89.4553 16.7085 89.4438 16.6495C89.4323 16.5905 89.4369 16.5295 89.4571 16.473H89.5408H89.7362C89.9569 16.4341 90.1618 16.3327 90.3267 16.1809C90.4916 16.0291 90.6095 15.8331 90.6666 15.6163C90.6984 15.5066 90.7081 15.3917 90.6954 15.2782C90.6826 15.1648 90.6475 15.0549 90.5922 14.9551C90.578 14.9246 90.5554 14.8987 90.527 14.8806V14.9365C90.5172 15.056 90.4665 15.1686 90.3835 15.2551C90.3004 15.3416 90.1901 15.3968 90.0711 15.4114C89.9383 15.4262 89.8044 15.3944 89.6924 15.3213C89.5804 15.2483 89.4972 15.1386 89.4571 15.011C89.3829 14.7587 89.3829 14.4904 89.4571 14.2381C89.5136 14.0391 89.6015 13.8505 89.7176 13.6794C90.196 12.8815 90.6038 12.0433 90.9364 11.1744C90.992 11.0396 91.0326 10.8991 91.0574 10.7554C91.053 10.6996 91.053 10.6436 91.0574 10.5878V10.4015C91.0606 10.346 91.0765 10.2919 91.1039 10.2434C91.1314 10.195 91.1695 10.1535 91.2155 10.1222C91.3518 10.0215 91.4632 9.8909 91.5412 9.74038C91.6257 9.5905 91.6614 9.41801 91.6435 9.24685C91.6243 9.08612 91.5484 8.93753 91.4295 8.82781L91.1969 8.59501V8.53914L91.4109 8.38083C91.4867 8.30365 91.5418 8.20855 91.5711 8.10437C91.6004 8.00018 91.6029 7.89028 91.5784 7.78487C91.5676 7.72329 91.5415 7.66542 91.5024 7.6166C91.4634 7.56778 91.4127 7.52957 91.3551 7.50551C91.2993 7.50551 91.2528 7.50551 91.2155 7.50551V7.75693C91.1791 7.7678 91.1403 7.7678 91.1039 7.75693C91.0395 7.75493 90.9774 7.73205 90.9271 7.69175C90.8744 7.64792 90.8308 7.5941 90.7988 7.53338C90.7669 7.47266 90.7473 7.40622 90.741 7.33789C90.7316 7.25124 90.7316 7.16381 90.741 7.07715C90.7307 6.87604 90.6629 6.68212 90.5457 6.51843C90.4433 6.31357 90.3224 6.08077 90.1828 5.84797C90.0052 5.55023 89.7637 5.29576 89.4757 5.10301C88.9993 4.77839 88.4607 4.55642 87.894 4.45117H87.7266C87.7328 4.54343 87.7675 4.63148 87.8258 4.7032C87.8841 4.77491 87.9632 4.82675 88.0522 4.85159" fill="#D39C62"/>
<path d="M95.5979 28.3365C95.5654 28.195 95.4983 28.0638 95.4025 27.9547L95.3374 27.8802C95.4231 28.0329 95.4559 28.2097 95.4304 28.383C95.4181 28.4814 95.3864 28.5763 95.3374 28.6624C95.2892 28.7501 95.2175 28.8227 95.1304 28.8721C95.0433 28.9214 94.9443 28.9455 94.8443 28.9418C94.7459 28.9388 94.6503 28.9085 94.5681 28.8542C94.4859 28.7999 94.4205 28.7238 94.3791 28.6345C94.3029 28.4271 94.3029 28.1993 94.3791 27.9919C94.4283 27.8198 94.4905 27.6517 94.5652 27.4891L94.7047 27.2283C94.7352 27.1613 94.7693 27.096 94.8071 27.0328C94.9845 26.6947 95.0931 26.3247 95.1267 25.9443C95.1602 25.5638 95.118 25.1805 95.0025 24.8165C94.953 24.6508 94.8843 24.4914 94.7978 24.3416C94.4749 23.8084 94.0155 23.3712 93.4673 23.0752C93.8277 24.3467 93.6705 25.7093 93.03 26.8652C92.7136 27.4465 92.2437 27.9297 91.6716 28.262L91.56 28.3272H91.4949L91.7647 28.6531H91.9322L92.4346 28.5693L92.9184 28.4668L93.1417 28.4203H93.2161V28.4855C93.2161 28.4855 93.2161 28.4855 93.2161 28.5413C93.2161 28.5972 93.2161 28.6251 93.2161 28.6717C93.2393 28.8209 93.2925 28.9638 93.3725 29.0919C93.4524 29.2199 93.5575 29.3304 93.6813 29.4167C93.9639 29.6447 94.325 29.7518 94.6861 29.7146C94.7776 29.704 94.8661 29.6755 94.9466 29.6308C95.1844 29.5183 95.3762 29.3273 95.4897 29.0898C95.6032 28.8524 95.6316 28.5831 95.57 28.3272" fill="#D39C62"/>
<path d="M77.66 2.20694C77.66 2.16038 77.66 2.11382 77.66 2.06726C76.7763 2.64002 75.9252 3.26179 75.1108 3.92966C75.1108 4.06003 75.1945 4.18109 75.2224 4.32077C75.2827 4.5457 75.2799 4.78292 75.2142 5.00635C75.1486 5.22978 75.0226 5.43076 74.8502 5.5872C74.6392 5.79816 74.3531 5.91666 74.0548 5.91666C73.7565 5.91666 73.4704 5.79816 73.2593 5.5872C73.1417 5.4491 73.0563 5.28649 73.0095 5.11121C72.9626 4.93593 72.9554 4.75239 72.9884 4.57397C73.0214 4.39555 73.0937 4.22673 73.2001 4.07983C73.3065 3.93293 73.4443 3.81164 73.6035 3.7248L73.7245 3.6503C73.3895 2.82153 73.0825 2.00208 72.7941 1.17331C72.7986 1.14869 72.7986 1.12344 72.7941 1.09882C72.7941 1.09882 72.729 1.09882 72.7196 1.14538C72.0861 1.84938 71.402 2.50608 70.6728 3.11021C70.617 3.11021 70.5797 3.22195 70.5239 3.27782L70.71 3.53856C70.8961 3.76447 71.0032 4.04516 71.015 4.33773C71.0268 4.63031 70.9425 4.91869 70.7751 5.15884C70.6866 5.29218 70.5682 5.40291 70.4292 5.48215C70.2903 5.56139 70.1347 5.60694 69.975 5.61513C69.7055 5.63218 69.438 5.55919 69.2145 5.40762C68.9909 5.25604 68.824 5.03447 68.7399 4.77767C68.6558 4.52088 68.6593 4.2434 68.7498 3.98879C68.8403 3.73418 69.0127 3.51686 69.24 3.37094L69.454 3.23126C69.4429 3.18495 69.424 3.14086 69.3981 3.10089C68.8492 2.10451 68.1886 1.12675 67.6211 0.102432C67.586 0.0660044 67.5487 0.0317944 67.5094 0C67.5094 0 67.4443 0.055872 67.435 0.0744959C66.8148 1.11744 66.1945 2.16969 65.5742 3.23126L65.7789 3.36163C65.9362 3.4506 66.0676 3.57896 66.1604 3.73411C66.267 3.89784 66.3331 4.08466 66.3532 4.27907C66.3732 4.47349 66.3467 4.66988 66.2757 4.85197C66.2048 5.03406 66.0915 5.19659 65.9452 5.32607C65.7989 5.45556 65.6239 5.54827 65.4347 5.59651C65.2009 5.66135 64.9522 5.64618 64.728 5.55339C64.5038 5.4606 64.317 5.29552 64.1972 5.08435C64.0789 4.90199 64.0098 4.69201 63.9967 4.47493C63.9837 4.25785 64.0271 4.0411 64.1228 3.84585C64.2072 3.70058 64.3004 3.56063 64.4019 3.42681L64.5322 3.2592C64.4663 3.15667 64.381 3.06808 64.281 2.99846C64.0391 2.7936 63.7879 2.59805 63.5646 2.37456C63.1738 1.99277 62.8017 1.59235 62.4109 1.20125L62.2806 1.0895L61.3502 3.6503C61.5359 3.73866 61.6988 3.86861 61.8263 4.03009C61.9537 4.19157 62.0424 4.38024 62.0853 4.5815C62.1363 4.82936 62.1024 5.08719 61.9892 5.31346C61.876 5.53973 61.6899 5.72126 61.4611 5.82881C61.2322 5.93636 60.9738 5.96366 60.7275 5.90631C60.4813 5.84897 60.2615 5.71032 60.1035 5.5127C59.9585 5.33795 59.861 5.12878 59.8202 4.90533C59.7795 4.68188 59.7969 4.45169 59.8709 4.23696C59.8962 4.13897 59.9273 4.04258 59.964 3.94829L59.8802 3.89241L57.5263 2.12313C57.5263 2.12313 57.4426 2.04864 57.3682 2.12313C57.5263 2.64461 57.7775 3.14745 57.9171 3.69686C57.7557 3.79043 57.6321 3.93749 57.5675 4.11262C57.503 4.28775 57.5016 4.47994 57.5635 4.656C57.6235 4.84863 57.7501 5.01354 57.9206 5.12108C58.0912 5.22862 58.2945 5.27173 58.4939 5.24265L58.8103 6.04348L59.1173 6.80707C59.2196 7.07712 59.322 7.33785 59.4336 7.6079C59.5188 7.87942 59.6245 8.14403 59.75 8.39942C62.208 7.36138 64.8616 6.86896 67.5281 6.95606C70.1867 6.90698 72.8283 7.39142 75.2968 8.38079C75.5015 7.8407 75.6876 7.31923 75.8923 6.80707C76.097 6.29491 76.3203 5.75481 76.5343 5.2054C76.7309 5.2441 76.935 5.20838 77.1068 5.10517C77.2787 5.00195 77.4062 4.83858 77.4647 4.64668C77.544 4.4708 77.5556 4.27176 77.4972 4.08783C77.4388 3.9039 77.3146 3.74807 77.1483 3.6503L77.2321 3.37094C77.3809 2.97984 77.5298 2.57942 77.6693 2.18832M62.8482 4.12521C62.5039 4.12521 62.1783 3.80861 62.1225 3.33369C62.0666 2.85878 62.2992 2.40249 62.6435 2.40249C62.9877 2.40249 63.3041 2.70979 63.3599 3.1847C63.4157 3.65961 63.1831 4.1159 62.8482 4.1159M67.5001 3.54787C67.329 3.54787 67.1617 3.49708 67.0194 3.40192C66.8771 3.30676 66.7662 3.17151 66.7007 3.01326C66.6352 2.85502 66.6181 2.68089 66.6515 2.5129C66.6849 2.34491 66.7673 2.1906 66.8883 2.06949C67.0093 1.94837 67.1635 1.86589 67.3313 1.83248C67.4992 1.79906 67.6732 1.81621 67.8313 1.88176C67.9894 1.94731 68.1245 2.05831 68.2196 2.20072C68.3147 2.34314 68.3654 2.51057 68.3654 2.68185C68.3654 2.91154 68.2742 3.13181 68.112 3.29422C67.9497 3.45663 67.7296 3.54787 67.5001 3.54787ZM72.4219 4.1159C72.2338 4.05562 72.076 3.9255 71.9808 3.7523C71.8856 3.57909 71.8603 3.37597 71.9102 3.1847C71.966 2.70979 72.2824 2.36525 72.6266 2.40249C72.9708 2.43974 73.2035 2.85878 73.1476 3.33369C73.0918 3.80861 72.7662 4.16246 72.4219 4.12521" fill="#D39C62"/>
<path d="M74.4314 10.3364C74.4314 11.2024 71.3424 11.9008 67.5185 11.9008C63.6946 11.9008 60.6057 11.1744 60.6057 10.3364C60.6057 9.49827 63.6946 8.78125 67.5092 8.78125C71.3238 8.78125 74.4314 9.47965 74.4314 10.3364Z" fill="#D39C62"/>
<path d="M60.2895 9.82425C62.3364 8.51125 65.2299 8.38089 67.5094 8.38089C69.7888 8.38089 72.6358 8.52057 74.7385 9.82425C75.0921 9.72181 75.334 9.5542 75.3247 9.41452C75.3247 8.73474 73.7616 8.29708 73.1475 8.12015C69.4558 7.13931 65.5722 7.13931 61.8805 8.12015C61.2943 8.29708 59.722 8.73474 59.7034 9.41452C59.7034 9.5542 59.936 9.72181 60.2895 9.82425Z" fill="#D39C62"/>
<path d="M75.5851 26.2785C75.1485 23.7673 75.1108 21.2028 75.4735 18.6799C75.5524 18.4618 75.5791 18.2282 75.5513 17.9979C75.5235 17.7676 75.4421 17.5471 75.3135 17.3541C75.185 17.1611 75.0129 17.001 74.8112 16.8868C74.6095 16.7725 74.3838 16.7073 74.1523 16.6964H60.9128H60.8291C60.6008 16.7128 60.3794 16.7821 60.1824 16.8986C59.9854 17.0152 59.8181 17.1759 59.6936 17.3681C59.5692 17.5604 59.491 17.7789 59.4652 18.0065C59.4395 18.2341 59.4668 18.4646 59.5451 18.6799C59.9078 21.2028 59.8701 23.7673 59.4335 26.2785C59.2559 27.3919 59.2559 28.5266 59.4335 29.6401C59.602 30.5503 59.9568 31.4158 60.4755 32.1823C61.4143 33.4834 62.7345 34.4598 64.2529 34.9759C65.1532 35.2992 65.9745 35.8102 66.6626 36.4751C66.7731 36.5978 66.9079 36.696 67.0586 36.7633C67.2092 36.8307 67.3722 36.8657 67.5372 36.8662C67.7104 36.8719 67.8829 36.8408 68.0432 36.775C68.2036 36.7092 68.3482 36.6101 68.4676 36.4844C69.1541 35.8153 69.9758 35.3009 70.8773 34.9759C72.3957 34.4598 73.7159 33.4834 74.6547 32.1823C75.1538 31.4113 75.4894 30.5461 75.6409 29.6401C75.814 28.5262 75.814 27.3923 75.6409 26.2785M61.7967 32.2381C61.2441 31.6235 60.8455 30.8862 60.6337 30.0871L61.378 28.7927H63.3691L64.3646 30.5154L63.3691 32.2381H61.7967ZM64.1785 33.905L63.8808 33.5232H63.2667C63.1272 33.4487 62.9876 33.3556 62.8573 33.2718H63.8529L65.4066 30.562L63.8529 27.8522H60.7547L60.3267 28.5971C60.3067 27.8677 60.3566 27.1381 60.4755 26.4181C60.9408 23.7777 60.9723 21.079 60.5686 18.4284C60.429 17.9256 60.6337 17.7394 61.0431 17.6742H74.0686C74.4966 17.7394 74.7199 17.9256 74.5803 18.4378C74.1766 21.0883 74.208 23.787 74.6733 26.4274C74.7927 27.3299 74.7927 28.2441 74.6733 29.1465L73.9104 27.8149H70.775L69.2119 30.5247L70.775 33.2345H72.1613C72.031 33.3183 71.8915 33.4114 71.7519 33.4859H70.775L70.4028 34.1285L69.8539 34.3706L70.4493 33.3463L68.8491 30.6272H65.7695L64.1971 33.3369L64.653 34.1285H64.5879L64.1134 33.9236M73.2963 32.2568H71.3425L70.347 30.534L71.3425 28.8113H73.3336L74.3291 30.534L73.3987 32.1729L73.3243 32.2568M65.3415 33.3369L66.3277 31.6049H68.3187L69.3143 33.3369L68.3187 35.0597H66.458L66.3184 34.9665L65.3415 33.3369Z" fill="#D39C62"/>
<path d="M68.8492 30.3478L70.4123 27.638L68.8492 24.9375H65.7696L64.1973 27.638L65.7603 30.3478H68.8492ZM66.2906 25.9153H68.2817L69.2772 27.638L68.2817 29.37H66.3279L65.3417 27.638L66.2906 25.9153Z" fill="#D39C62"/>
<path d="M63.0249 24.6209C63.0249 24.6861 63.1273 24.7419 63.1831 24.8071C63.2693 24.9026 63.3698 24.9843 63.4808 25.0492C63.5749 24.998 63.6623 24.9354 63.7413 24.863C63.8064 24.7792 63.8809 24.7047 63.946 24.6116C63.6446 24.6919 63.3279 24.6951 63.0249 24.6209Z" fill="#D39C62"/>
<path d="M62.7363 22.5537L61.0337 23.7456C61.1834 23.8978 61.3768 23.9994 61.587 24.0361C61.7972 24.0729 62.0136 24.0429 62.206 23.9505C62.4512 23.8317 62.6435 23.626 62.7456 23.3732C62.7411 23.3485 62.7411 23.3233 62.7456 23.2987C62.6543 23.0593 62.651 22.7953 62.7363 22.5537Z" fill="#D39C62"/>
<path d="M70.6168 21.073C70.6168 21.073 69.1375 20.0301 68.449 19.5552C68.5792 19.8487 68.599 20.1794 68.5048 20.4864C68.4897 20.5216 68.4676 20.5533 68.4397 20.5795C68.5701 20.8964 68.8116 21.1546 69.1189 21.3058C69.3626 21.4243 69.6365 21.4654 69.9042 21.4238C70.1719 21.3822 70.4205 21.2598 70.6168 21.073Z" fill="#D39C62"/>
<path d="M72.2545 24.0621C72.1801 24.0939 72.1019 24.1158 72.0219 24.1273H71.8358C71.7399 24.137 71.6433 24.137 71.5474 24.1273H71.4264H71.2869L71.0357 24.0808C70.959 24.0677 70.8841 24.0458 70.8124 24.0156C70.8028 24.0585 70.8028 24.103 70.8124 24.1459L70.8961 24.3136H71.0636H71.138H71.3148C71.4511 24.3229 71.5879 24.3229 71.7242 24.3136H71.8172C71.9248 24.2944 72.0306 24.2663 72.1335 24.2297C72.1514 24.1815 72.1731 24.1347 72.1987 24.0901C72.2083 24.0377 72.2083 23.9841 72.1987 23.9318L72.2545 24.0621Z" fill="#D39C62"/>
<path d="M71.0542 24.6209C71.1007 24.6861 71.1565 24.7419 71.2124 24.8071C71.2966 24.9047 71.3974 24.9866 71.5101 25.0492C71.6028 25.0003 71.6875 24.9375 71.7613 24.863C71.8375 24.7835 71.909 24.6995 71.9753 24.6116C71.6739 24.6919 71.3572 24.6951 71.0542 24.6209Z" fill="#D39C62"/>
<path d="M70.7656 22.5537L69.063 23.7456C69.2127 23.8978 69.4061 23.9994 69.6163 24.0361C69.8265 24.0729 70.0429 24.0429 70.2353 23.9505C70.4805 23.8317 70.6728 23.626 70.7749 23.3732C70.7449 23.3489 70.7223 23.3166 70.7098 23.28C70.6397 23.0392 70.6595 22.781 70.7656 22.5537Z" fill="#D39C62"/>
<path d="M72.3101 23.28C72.3146 23.3046 72.3146 23.3299 72.3101 23.3545C72.4083 23.6066 72.5976 23.8127 72.8404 23.9318C73.0341 24.025 73.2521 24.0554 73.4639 24.0186C73.6757 23.9819 73.8708 23.88 74.022 23.727L72.3101 22.535C72.4026 22.7747 72.4026 23.0403 72.3101 23.28Z" fill="#D39C62"/>
<path d="M72.2543 23.5313L72.0217 23.6058H71.8077H71.6309C71.5938 23.6011 71.5563 23.6011 71.5192 23.6058C71.4294 23.6104 71.3393 23.6104 71.2494 23.6058C71.1378 23.6058 71.0354 23.5406 70.9238 23.5127H70.8494C70.8494 23.5127 70.8494 23.5593 70.8494 23.5872C70.8494 23.6151 70.8494 23.7082 70.8494 23.7641H70.9424L71.1843 23.8293C71.2756 23.8538 71.3691 23.8694 71.4634 23.8759C71.5591 23.8897 71.6562 23.8897 71.7518 23.8759H71.9379L72.2356 23.7921H72.3194C72.3194 23.7921 72.3194 23.671 72.3194 23.6151C72.3194 23.5593 72.2636 23.5593 72.2543 23.5313Z" fill="#D39C62"/>
<path d="M68.4306 20.803L68.1421 20.8868L67.8723 20.9333H67.649C67.6026 20.9287 67.5559 20.9287 67.5095 20.9333H67.1652C67.0257 20.9333 66.8861 20.8589 66.7465 20.8216H66.6628C66.6584 20.8556 66.6584 20.89 66.6628 20.924C66.658 21.0016 66.658 21.0793 66.6628 21.1568H66.7838L67.0908 21.2406C67.2056 21.2767 67.3243 21.2986 67.4443 21.3058C67.5649 21.3198 67.6866 21.3198 67.8072 21.3058C67.8845 21.3148 67.9625 21.3148 68.0398 21.3058L68.4213 21.2034H68.5236C68.5236 21.2034 68.5236 21.0544 68.5236 20.9799C68.5265 20.9446 68.5193 20.9092 68.5028 20.8779C68.4863 20.8465 68.4613 20.8206 68.4306 20.803Z" fill="#D39C62"/>
<path d="M64.281 23.28C64.2855 23.3047 64.2855 23.3299 64.281 23.3545C64.3793 23.6067 64.5685 23.8127 64.8113 23.9319C65.0051 24.0251 65.2231 24.0554 65.4349 24.0187C65.6467 23.982 65.8418 23.88 65.9929 23.727L64.1973 22.5537C64.3127 22.7775 64.3424 23.0358 64.281 23.28Z" fill="#D39C62"/>
<path d="M64.1971 23.5313L63.9738 23.6058H63.7598H63.583C63.546 23.6011 63.5085 23.6011 63.4714 23.6058C63.3846 23.6109 63.2977 23.6109 63.2109 23.6058C63.0899 23.6058 62.9876 23.5406 62.8759 23.5127H62.8015C62.8015 23.5127 62.8015 23.5593 62.8015 23.5872C62.8015 23.6151 62.8015 23.7082 62.8015 23.7641H62.9039L63.1365 23.8293C63.2278 23.8538 63.3213 23.8694 63.4156 23.8759C63.5112 23.8897 63.6084 23.8897 63.704 23.8759C63.7657 23.8849 63.8284 23.8849 63.8901 23.8759L64.1971 23.8386H64.2808C64.2808 23.8386 64.2808 23.7176 64.2808 23.6617C64.2662 23.611 64.2371 23.5657 64.1971 23.5313Z" fill="#D39C62"/>
<path d="M66.5508 19.5552C65.8717 20.0208 64.4109 21.0358 64.3923 21.0637C64.5833 21.2555 64.8289 21.3835 65.0954 21.4302C65.3619 21.4769 65.6363 21.4399 65.881 21.3245C66.1882 21.1733 66.4298 20.915 66.5602 20.5981C66.535 20.5715 66.5159 20.5397 66.5043 20.505C66.4025 20.1935 66.4191 19.8553 66.5508 19.5552Z" fill="#D39C62"/>
<path d="M66.9136 22.1904C66.9681 22.2767 67.0304 22.3577 67.0997 22.4325C67.2129 22.5549 67.3448 22.6587 67.4904 22.7398C67.6076 22.6758 67.7143 22.5942 67.8068 22.4977C67.9034 22.404 67.9906 22.3011 68.0673 22.1904C67.688 22.2807 67.2928 22.2807 66.9136 22.1904Z" fill="#D39C62"/>
<path d="M68.4397 21.4735C68.3435 21.5112 68.2437 21.5393 68.142 21.5573L67.9187 21.6039C67.7948 21.6135 67.6704 21.6135 67.5465 21.6039H67.3977H67.2209L66.9046 21.548C66.8091 21.5287 66.7157 21.5006 66.6254 21.4642C66.6167 21.5197 66.6167 21.5763 66.6254 21.6318C66.6557 21.705 66.6899 21.7765 66.7278 21.846L66.9418 21.9112H67.0348C67.1092 21.9157 67.1837 21.9157 67.2581 21.9112H67.9187C68.0553 21.8914 68.1894 21.857 68.3187 21.8088L68.4025 21.6318C68.4175 21.5675 68.4175 21.5006 68.4025 21.4363L68.4397 21.4735Z" fill="#D39C62"/>
<path d="M64.1971 24.0623C64.1227 24.094 64.0445 24.116 63.9645 24.1275H63.7784C63.6825 24.1371 63.5859 24.1371 63.49 24.1275H63.3691L63.2667 24.2113L63.0155 24.1647C62.9388 24.1516 62.8639 24.1298 62.7922 24.0995C62.787 24.1428 62.787 24.1866 62.7922 24.2299L62.8759 24.3975H63.0434H63.1178H63.2946C63.4309 24.4068 63.5677 24.4068 63.704 24.3975H63.797C63.9046 24.3783 64.0104 24.3503 64.1134 24.3137C64.1388 24.2776 64.1668 24.2434 64.1971 24.2113C64.2067 24.159 64.2067 24.1053 64.1971 24.053V24.0623Z" fill="#D39C62"/>
<path d="M35.3551 142.995H35.5877C35.6535 143.004 35.7168 143.026 35.7738 143.06C35.7738 143.06 35.7738 143.06 35.7738 143.209L32.9268 150.975L30.1356 143.386C30.1252 143.324 30.1252 143.261 30.1356 143.2C30.1356 143.116 30.1356 143.079 30.1356 143.06C30.1824 143.02 30.2415 142.997 30.3031 142.995H30.5357V142.362H27.6143V142.986H27.8376C27.967 142.99 28.09 143.043 28.1818 143.135C28.2863 143.238 28.3686 143.362 28.4237 143.498L32.6849 154.868L36.8624 143.442C36.9008 143.3 36.9861 143.175 37.1043 143.088C37.2098 143.021 37.3326 142.985 37.4578 142.986H37.6904V142.352H35.3551V142.995Z" fill="#D39C62"/>
<path d="M53.9628 144.01C53.4367 143.447 52.8042 142.994 52.102 142.678C51.2873 142.345 50.4143 142.177 49.5341 142.185C48.6539 142.193 47.7841 142.377 46.9756 142.725C46.2352 143.064 45.5707 143.548 45.0217 144.15C44.4548 144.736 44.0146 145.434 43.7285 146.198C43.4591 146.922 43.3205 147.688 43.3191 148.461C43.3172 149.228 43.456 149.989 43.7285 150.705C43.9973 151.411 44.3984 152.059 44.9101 152.614C45.4346 153.179 46.0675 153.632 46.7709 153.946C47.5526 154.293 48.3998 154.468 49.255 154.458C50.087 154.462 50.9118 154.304 51.6833 153.992C52.4343 153.7 53.1227 153.267 53.7116 152.717C54.2942 152.169 54.7568 151.506 55.07 150.77C55.4026 149.987 55.5705 149.144 55.5631 148.293C55.5655 147.504 55.4236 146.722 55.1444 145.984C54.8835 145.255 54.482 144.584 53.9628 144.01ZM49.3108 143.256C49.9604 143.252 50.6004 143.412 51.1716 143.721C51.7322 144.03 52.2282 144.444 52.6323 144.941C53.0344 145.447 53.3489 146.017 53.5627 146.627C53.7821 147.223 53.8954 147.853 53.8977 148.489C53.8942 149.059 53.8 149.625 53.6186 150.165C53.44 150.724 53.1592 151.245 52.7905 151.702C52.4069 152.176 51.9324 152.568 51.3949 152.856C50.7985 153.166 50.1404 153.337 49.469 153.359C48.8416 153.361 48.2239 153.204 47.6733 152.903C47.1177 152.594 46.6252 152.184 46.2219 151.692C45.8254 151.19 45.5113 150.627 45.2915 150.025C45.06 149.432 44.9401 148.8 44.938 148.163C44.9441 147.577 45.0446 146.995 45.2357 146.44C45.4337 145.866 45.7296 145.33 46.1103 144.857C46.4862 144.38 46.9546 143.984 47.4873 143.693C48.046 143.389 48.6751 143.238 49.3108 143.256Z" fill="#D39C62"/>
<path d="M71.5381 144.187C70.9984 143.615 70.3457 143.161 69.6215 142.855C68.818 142.517 67.9531 142.349 67.0815 142.362H63.5088V142.995H63.8344C63.8613 142.984 63.8913 142.984 63.9182 142.995C63.9701 143.041 64.0113 143.099 64.0391 143.163C64.0767 143.236 64.1048 143.315 64.1228 143.395C64.1304 143.473 64.1304 143.551 64.1228 143.628V152.838C64.1315 152.924 64.1315 153.012 64.1228 153.099C64.1048 153.179 64.0767 153.258 64.0391 153.331C63.9971 153.402 63.9471 153.468 63.8902 153.527H63.8344H63.5088V154.16H66.8582C67.7954 154.179 68.7266 154.005 69.5936 153.648C70.3339 153.337 71.0046 152.881 71.566 152.307C72.0803 151.77 72.4848 151.137 72.7569 150.445C73.0138 149.756 73.1461 149.028 73.1477 148.294C73.1479 147.527 73.0092 146.766 72.7383 146.049C72.4581 145.359 72.051 144.727 71.5381 144.187ZM65.7789 143.405H66.4209C67.1181 143.399 67.8087 143.539 68.4492 143.814C69.0591 144.078 69.6121 144.457 70.0774 144.932C70.5384 145.402 70.902 145.959 71.1473 146.571C71.4014 147.211 71.5309 147.894 71.5288 148.582C71.5472 149.279 71.3938 149.97 71.0822 150.594C70.7932 151.147 70.3905 151.632 69.9006 152.018C69.4143 152.398 68.8624 152.685 68.2724 152.866C67.6834 153.041 67.0726 153.132 66.4581 153.136H65.7789V143.405Z" fill="#D39C62"/>
<path d="M89.5785 153.48C89.4285 153.397 89.2908 153.294 89.1691 153.173C89.0562 153.069 88.9505 152.957 88.8528 152.838C88.8017 152.776 88.7551 152.711 88.7132 152.642L84.9916 147.055L88.4806 143.572C88.6277 143.423 88.7899 143.288 88.9644 143.172C89.0712 143.088 89.2011 143.039 89.3366 143.032H89.6529V142.399H87.0943V143.032H87.3269C87.3319 143.057 87.3319 143.082 87.3269 143.107C87.3378 143.143 87.3378 143.182 87.3269 143.219L83.3634 147.13V143.684C83.3552 143.613 83.3552 143.541 83.3634 143.47C83.3878 143.385 83.4222 143.304 83.4658 143.228C83.4994 143.16 83.5469 143.099 83.6053 143.051C83.6183 143.044 83.6327 143.041 83.6472 143.041C83.6618 143.041 83.6761 143.044 83.6891 143.051H84.0054V142.418H81.1026V143.051H81.4189C81.4189 143.051 81.4189 143.051 81.4841 143.051C81.5376 143.104 81.5844 143.163 81.6236 143.228C81.6596 143.299 81.6877 143.374 81.7073 143.451C81.7149 143.529 81.7149 143.607 81.7073 143.684V152.894C81.716 152.98 81.716 153.068 81.7073 153.154C81.6893 153.235 81.6612 153.313 81.6236 153.387C81.5816 153.458 81.5316 153.523 81.4747 153.583C81.463 153.588 81.4503 153.591 81.4375 153.591C81.4247 153.591 81.4121 153.588 81.4003 153.583H81.084V154.216H84.0147V153.648H83.7356C83.7239 153.653 83.7112 153.656 83.6984 153.656C83.6856 153.656 83.6729 153.653 83.6612 153.648C83.6075 153.594 83.5634 153.531 83.5309 153.462C83.5309 153.369 83.4565 153.285 83.4286 153.192C83.42 153.114 83.42 153.036 83.4286 152.959V148.731L83.8845 148.266L87.0757 153.089C87.2052 153.282 87.3483 153.466 87.5037 153.639C87.6544 153.797 87.8305 153.929 88.0247 154.03C88.2389 154.137 88.4677 154.213 88.7039 154.253C89.0114 154.303 89.3228 154.325 89.6343 154.318H90.2484V153.648H89.9692C89.8249 153.634 89.6885 153.575 89.5785 153.48Z" fill="#D39C62"/>
<path d="M107.069 153.648C106.993 153.647 106.919 153.624 106.855 153.583C106.791 153.542 106.74 153.484 106.707 153.415C106.572 153.223 106.466 153.013 106.39 152.791L102.343 141.719L98.1656 152.847C98.0889 153.051 97.9823 153.243 97.8493 153.415C97.7842 153.499 97.6818 153.601 97.5888 153.601H97.2725V154.235H99.6543V153.648H99.3286C99.3286 153.648 99.2635 153.648 99.2449 153.583C99.2263 153.518 99.1891 153.527 99.1891 153.396C99.1768 153.335 99.1768 153.272 99.1891 153.21L100.631 149.234H103.329L104.827 153.275C104.841 153.349 104.841 153.425 104.827 153.499C104.827 153.592 104.827 153.648 104.65 153.648H104.325V154.281H107.349V153.648H107.069ZM101.971 145.472L102.966 148.182H100.975L101.971 145.472Z" fill="#D39C62"/>
<path d="M59.9546 60.7515C57.4891 60.7515 56.0562 61.6827 53.7117 61.6827C52.7119 61.6546 51.7146 61.5675 50.7251 61.4219C51.3764 62.856 51.7671 66.8881 51.7671 70.6687V117.787C51.8891 120.718 51.6263 123.651 50.9856 126.513C52.0119 126.312 53.0571 126.225 54.1024 126.252C56.0562 126.252 57.7496 127.183 60.0849 127.183C67.2396 127.183 70.6262 116.009 70.6262 92.7289C70.6262 71.1623 67.1093 60.7515 59.9546 60.7515ZM60.0849 123.235C58.1403 123.235 56.447 122.192 56.447 117.769V66.348C56.8902 65.8468 57.4285 65.4389 58.0307 65.148C58.6329 64.857 59.2869 64.6888 59.9546 64.6532C64.1228 64.6532 65.937 73.5089 65.937 92.6451C65.937 113.476 64.253 123.235 60.0849 123.235Z" fill="white"/>
<path d="M39.6721 65.305C43.1796 65.305 45.2544 69.2161 45.915 75.2037H46.8454C47.0268 70.5411 47.7227 65.9129 48.9202 61.4033C45.5428 61.6641 42.6772 61.9248 39.9512 61.9248C37.2251 61.9248 34.4805 61.6641 31.2334 61.4033C31.8847 62.8374 32.2754 66.8695 32.2754 70.6501V117.769C32.3974 120.699 32.1346 123.632 31.4939 126.494C34.0005 126.24 36.5212 126.153 39.0394 126.233C41.6443 126.155 44.2515 126.242 46.8454 126.494C46.7027 125.065 46.6592 123.627 46.7151 122.192C46.7151 119.594 46.7151 116.074 46.9756 112.694H45.915C45.394 116.987 43.3099 122.322 40.1931 122.322C36.4157 122.322 36.4157 114.649 36.4157 107.228C36.4157 97.1986 36.9367 94.4702 39.4116 94.4702C41.8864 94.4702 43.1331 98.5023 43.9612 101.92L45.0032 101.789C44.7427 99.0517 44.4822 96.4444 44.4822 93.7159C44.4822 90.9875 44.7427 88.3802 45.0032 85.7728H43.9612C43.0308 89.8049 41.3561 92.5426 39.4116 92.5426C37.067 92.5426 36.4157 90.3264 36.4157 79.5058C36.4157 69.4768 36.9367 65.305 39.6721 65.305Z" fill="white"/>
<path d="M26.5348 70.6501C26.5348 66.8695 26.9256 62.8374 27.5768 61.4033C26.5842 61.5493 25.5839 61.6364 24.581 61.6641C23.6244 61.6365 22.6705 61.5494 21.7247 61.4033L13.9559 114.389H13.3977L5.58236 61.4033C4.63647 61.5486 3.68258 61.6356 2.72605 61.6641C1.81274 61.6355 0.90219 61.5484 0 61.4033C0.651275 62.8374 1.04204 66.8695 1.04204 70.6501V117.769C1.16398 120.699 0.901224 123.632 0.26051 126.494C1.20212 126.295 2.16399 126.207 3.12612 126.233C4.25772 126.209 5.38894 126.297 6.50345 126.494C5.7902 123.199 5.44076 119.836 5.46141 116.465V80.2229C5.72192 80.3905 5.9173 80.8561 6.11268 81.8431C6.6337 84.8323 11.1833 116.074 11.8346 121.671C11.9361 122.448 11.9796 123.233 11.9649 124.017C11.943 124.856 11.8117 125.689 11.5741 126.494H15.7329C15.5024 125.688 15.3743 124.856 15.3515 124.017C15.3367 123.233 15.3803 122.448 15.4817 121.671C16.1237 116.083 20.9431 84.8323 21.4642 80.1484H21.8549V116.465C21.8756 119.836 21.5261 123.199 20.8129 126.494C21.9273 126.296 23.0586 126.209 24.1902 126.233C25.2386 126.206 26.2869 126.293 27.3163 126.494C26.6756 123.632 26.4129 120.699 26.5348 117.769V70.6501Z" fill="white"/>
<path d="M84.284 60.7515C77.1293 60.7515 73.7427 71.9259 73.7427 95.2524C73.7427 116.726 77.2596 127.146 84.4143 127.146C91.569 127.146 94.9463 115.972 94.9463 92.6916C94.9463 71.1623 91.4294 60.7515 84.284 60.7515ZM84.4143 123.235C80.2461 123.235 78.4226 114.389 78.4226 95.299C78.4226 74.468 80.1159 64.6998 84.284 64.6998C88.4522 64.6998 90.2478 73.5089 90.2478 92.645C90.2478 113.476 88.5731 123.235 84.4143 123.235Z" fill="white"/>
<path d="M126.031 61.9248C123.295 61.9248 120.569 61.6641 117.313 61.4033C117.964 62.8374 118.355 66.8695 118.355 70.6501V117.769C118.477 120.699 118.214 123.632 117.574 126.494C119.685 126.168 121.835 126.168 123.947 126.494C122.644 121.028 123.016 114.649 123.016 107.228C123.016 97.1986 123.016 94.4702 125.491 94.4702C127.966 94.4702 129.213 98.5023 130.041 101.92L131.083 101.789C130.822 99.0517 130.562 96.4444 130.562 93.7159C130.562 90.9875 130.822 88.3802 131.083 85.7728H130.041C129.11 89.8049 127.445 92.5426 125.491 92.5426C123.147 92.5426 122.495 90.3264 122.495 79.5058C122.495 69.4861 123.016 65.3144 125.752 65.3144C129.259 65.3144 131.334 69.2254 131.995 75.213H132.925C133.115 70.5513 133.811 65.924 135 61.4126C131.622 61.6641 128.757 61.9248 126.031 61.9248Z" fill="white"/>
<path d="M97.8027 61.4033C98.454 62.8374 98.8448 66.8695 98.8448 70.6501V117.769C98.9667 120.699 98.704 123.632 98.0632 126.494C100.175 126.168 102.325 126.168 104.436 126.494C103.143 121.028 103.506 114.649 103.506 107.228C103.506 97.1986 103.506 94.4702 105.981 94.4702C108.456 94.4702 109.702 98.5023 110.531 101.92L111.573 101.789C111.312 99.0517 111.052 96.4444 111.052 93.7159C111.052 90.9875 111.312 88.3802 111.573 85.7728H110.531C109.6 89.8049 107.935 92.5426 105.981 92.5426C103.636 92.5426 102.994 90.3264 102.994 79.5058C102.994 69.4861 103.506 65.3144 106.241 65.3144C109.749 65.3144 111.824 69.2254 112.484 75.213H113.415C113.603 70.5505 114.302 65.9227 115.499 61.4126C112.112 61.6734 109.256 61.9341 106.521 61.9341C103.785 61.9341 101.059 61.6641 97.8027 61.4033Z" fill="white"/>
</g>
<defs>
<clipPath id="clip0_2044_4445">
<rect width="135" height="163.5" fill="white"/>
</clipPath>
</defs>
</svg>
