<svg width="243" height="202" viewBox="0 0 243 202" fill="none" xmlns="http://www.w3.org/2000/svg">
<path d="M45.6603 136.425V55.3667L56.6141 65.9339H28.9074V46.217H71.1762V136.425H45.6603Z" fill="#FEFEFE"/>
<g style="mix-blend-mode:plus-lighter" filter="url(#filter0_f_2007_5454)">
<ellipse cx="121.407" cy="100.99" rx="55.492" ry="80.5155" transform="rotate(72.6377 121.407 100.99)" fill="#0055B8"/>
</g>
<path d="M97.9554 70.8627C97.1267 77.2016 96.6233 83.6429 96.4625 90.1691C105.271 93.8468 113.649 98.3498 121.5 103.582C129.351 98.3498 137.729 93.8468 146.537 90.1691C146.377 83.6429 145.873 77.2017 145.045 70.8628M97.9554 70.8627C95.2918 69.9674 92.5959 69.1424 89.8699 68.39C99.7413 61.4707 110.329 55.504 121.5 50.6232C132.671 55.504 143.259 61.4707 153.13 68.39C150.404 69.1425 147.708 69.9675 145.045 70.8628M97.9554 70.8627C106.129 73.6101 113.999 77.0198 121.5 81.0279C129.002 77.0198 136.871 73.6102 145.045 70.8628M105.531 85.625C106.791 85.625 107.812 84.6036 107.812 83.3437C107.812 82.0838 106.791 81.0625 105.531 81.0625C104.271 81.0625 103.25 82.0838 103.25 83.3437C103.25 84.6036 104.271 85.625 105.531 85.625ZM105.531 85.625V74.4453C110.676 71.2485 116.006 68.3208 121.5 65.6817M100.186 100.811C103.749 97.2474 105.531 92.5768 105.531 87.9062V83.3437" stroke="#FEFEFE" stroke-width="4.5625" stroke-linecap="round" stroke-linejoin="round"/>
<path d="M100.812 131.357L99.2829 132.961V116.811H106.333V132.961L104.729 131.357H113.308L111.778 132.961V116.811H118.791V137.027H86.7502V116.811H93.7999V132.961L92.2706 131.357H100.812ZM135.55 137.027V133.26L135.065 132.327V125.389C135.065 124.27 134.717 123.413 134.02 122.816C133.349 122.194 132.267 121.883 130.775 121.883C129.805 121.883 128.823 122.045 127.829 122.368C126.834 122.667 125.988 123.089 125.292 123.636L122.905 118.825C124.049 118.079 125.417 117.507 127.008 117.109C128.624 116.686 130.228 116.475 131.82 116.475C135.102 116.475 137.638 117.233 139.429 118.75C141.244 120.242 142.152 122.592 142.152 125.8V137.027H135.55ZM129.582 137.363C127.965 137.363 126.598 137.089 125.479 136.542C124.36 135.995 123.502 135.249 122.905 134.304C122.333 133.359 122.047 132.302 122.047 131.134C122.047 129.89 122.358 128.821 122.98 127.926C123.626 127.006 124.608 126.31 125.926 125.837C127.244 125.34 128.948 125.091 131.036 125.091H135.811V128.784H132.006C130.862 128.784 130.054 128.97 129.582 129.343C129.134 129.716 128.91 130.214 128.91 130.835C128.91 131.457 129.146 131.954 129.619 132.327C130.091 132.7 130.738 132.887 131.559 132.887C132.329 132.887 133.026 132.7 133.647 132.327C134.294 131.929 134.766 131.333 135.065 130.537L136.035 133.148C135.662 134.54 134.928 135.597 133.834 136.318C132.765 137.015 131.347 137.363 129.582 137.363ZM146.415 137.027V116.811H163.349V122.443H151.936L153.465 120.913V137.027H146.415Z" fill="#FEFEFE"/>
<defs>
<filter id="filter0_f_2007_5454" x="0.350574" y="0.388783" width="242.112" height="201.203" filterUnits="userSpaceOnUse" color-interpolation-filters="sRGB">
<feFlood flood-opacity="0" result="BackgroundImageFix"/>
<feBlend mode="normal" in="SourceGraphic" in2="BackgroundImageFix" result="shape"/>
<feGaussianBlur stdDeviation="21.2144" result="effect1_foregroundBlur_2007_5454"/>
</filter>
</defs>
</svg>
