<svg width="243" height="202" viewBox="0 0 243 202" fill="none" xmlns="http://www.w3.org/2000/svg">
<path d="M18.061 119.157V102.533L58.5257 46.217H84.9437L45.6388 102.533L33.5252 98.9242H104.016V119.157H18.061ZM65.7423 136.425V119.157L66.5155 98.9242V83.5889H90.6139V136.425H65.7423Z" fill="#FEFEFE"/>
<g style="mix-blend-mode:plus-lighter" filter="url(#filter0_f_2011_2945)">
<ellipse cx="121.564" cy="100.99" rx="55.492" ry="80.5155" transform="rotate(72.6377 121.564 100.99)" fill="#0055B8"/>
</g>
<path d="M137.249 131.113L135.72 132.717V116.566H142.77V132.717L141.166 131.113H149.745L148.215 132.717V116.566H155.228V136.783H123.187V116.566H130.237V132.717L128.708 131.113H137.249ZM171.987 136.783V133.016L171.502 132.083V125.145C171.502 124.026 171.154 123.168 170.457 122.572C169.786 121.95 168.704 121.639 167.212 121.639C166.242 121.639 165.26 121.801 164.266 122.124C163.271 122.422 162.425 122.845 161.729 123.392L159.342 118.581C160.486 117.835 161.854 117.263 163.445 116.865C165.061 116.442 166.665 116.231 168.257 116.231C171.539 116.231 174.075 116.989 175.866 118.506C177.681 119.998 178.589 122.348 178.589 125.556V136.783H171.987ZM166.019 137.119C164.402 137.119 163.035 136.845 161.916 136.298C160.797 135.751 159.939 135.005 159.342 134.06C158.77 133.115 158.484 132.058 158.484 130.889C158.484 129.646 158.795 128.577 159.417 127.682C160.063 126.762 161.045 126.065 162.363 125.593C163.681 125.096 165.385 124.847 167.473 124.847H172.248V128.54H168.443C167.299 128.54 166.491 128.726 166.019 129.099C165.571 129.472 165.347 129.969 165.347 130.591C165.347 131.213 165.584 131.71 166.056 132.083C166.528 132.456 167.175 132.643 167.996 132.643C168.766 132.643 169.463 132.456 170.084 132.083C170.731 131.685 171.203 131.088 171.502 130.293L172.472 132.904C172.099 134.296 171.365 135.353 170.271 136.074C169.202 136.77 167.784 137.119 166.019 137.119ZM182.852 136.783V116.566H199.786V122.199H188.373L189.902 120.669V136.783H182.852Z" fill="#FEFEFE"/>
<g clip-path="url(#clip0_2011_2945)">
<path d="M130.64 59.8418L189.16 70.0819M130.246 62.0926L188.766 72.3327M135.31 86.1759L144.314 87.7513M131.484 94.7852L176.5 102.662C180.229 103.315 183.781 100.821 184.434 97.0914L189.948 65.5803C190.6 61.8511 188.106 58.299 184.377 57.6464L139.361 49.7694C135.632 49.1169 132.08 51.611 131.427 55.3403L125.913 86.8513C125.261 90.5805 127.755 94.1326 131.484 94.7852Z" stroke="#FEFEFE" stroke-width="4.9508" stroke-linecap="round" stroke-linejoin="round"/>
<path d="M139.488 77.9384C140.68 77.9933 141.788 77.2081 142.142 76.0571C142.265 75.6645 142.296 75.2491 142.234 74.8429C142.171 74.4367 142.017 74.0507 141.784 73.7145C141.55 73.3784 141.242 73.1011 140.885 72.9041C140.527 72.7072 140.13 72.5957 139.722 72.5784C138.529 72.5243 137.421 73.3096 137.068 74.4597C136.945 74.8524 136.914 75.2678 136.976 75.6739C137.039 76.0801 137.193 76.4662 137.426 76.8023C137.66 77.1385 137.968 77.4157 138.325 77.6127C138.683 77.8097 139.08 77.9211 139.488 77.9384ZM140.967 70.4186C142.069 70.7342 143.028 71.4218 143.686 72.3665C144.343 73.3112 144.658 74.4557 144.578 75.6086C144.337 78.7948 141.292 80.9528 138.241 80.0989C137.139 79.7831 136.18 79.0954 135.523 78.1508C134.866 77.2062 134.551 76.0618 134.631 74.909C134.871 71.7229 137.917 69.5648 140.967 70.4186ZM147.952 71.8428L155.139 73.1005C155.413 73.1483 155.512 73.4904 155.309 73.6811L149.178 79.4292L153.074 80.111C153.785 80.2352 154.229 80.9848 153.953 81.7019C153.749 82.2279 153.178 82.5106 152.627 82.4143L144.822 81.0484C144.551 81.0011 144.452 80.662 144.653 80.4738L150.789 74.7207L147.591 74.1611C147.04 74.0648 146.599 73.6038 146.586 73.041C146.568 72.2724 147.242 71.7185 147.952 71.8428ZM179.139 77.3271C179.909 77.2993 180.462 77.98 180.336 78.7002L178.941 86.6746C178.892 86.9531 178.546 87.0521 178.361 86.8418L173.029 80.7948L172.35 84.6765C172.224 85.3967 171.472 85.849 170.757 85.5616C170.245 85.356 169.968 84.7924 170.064 84.2447L171.455 76.2985C171.503 76.02 171.849 75.921 172.035 76.1313L177.368 82.1784L178.041 78.3305C178.137 77.7828 178.589 77.3478 179.14 77.3272L179.139 77.3271ZM163.039 74.2546C166.835 74.9188 169.524 77.6743 169.045 80.409C168.567 83.1437 165.102 84.8223 161.306 84.1581C157.51 83.4938 154.821 80.7384 155.299 78.0037C155.778 75.2689 159.243 73.5904 163.039 74.2546ZM162.634 76.5654C160.012 76.1065 157.808 77.1581 157.59 78.4045C157.372 79.6509 159.087 81.3883 161.71 81.8473C164.333 82.3062 166.536 81.2555 166.755 80.0082C166.973 78.7609 165.257 77.0243 162.634 76.5654Z" fill="#FEFEFE"/>
</g>
<defs>
<filter id="filter0_f_2011_2945" x="0.507801" y="0.388783" width="242.112" height="201.203" filterUnits="userSpaceOnUse" color-interpolation-filters="sRGB">
<feFlood flood-opacity="0" result="BackgroundImageFix"/>
<feBlend mode="normal" in="SourceGraphic" in2="BackgroundImageFix" result="shape"/>
<feGaussianBlur stdDeviation="21.2144" result="effect1_foregroundBlur_2011_2945"/>
</filter>
<clipPath id="clip0_2011_2945">
<rect width="73.1196" height="73.1196" fill="white" transform="translate(128.22 33.9016) rotate(9.92529)"/>
</clipPath>
</defs>
</svg>
