<svg width="169" height="40" viewBox="0 0 169 40" fill="none" xmlns="http://www.w3.org/2000/svg">
<g clip-path="url(#clip0_4001_638)">
<path d="M30.9211 39.0425H21.7829L8.04538 19.7685V39.0425H0V0.958008H8.04538V19.4124L21.622 0.958008H30.1702L16.3657 19.2512L30.9211 39.0425Z" fill="#0055B8"/>
<path d="M45.8923 0.957971C48.7385 0.896888 51.5799 1.22002 54.34 1.91865C56.3474 2.34952 58.1584 3.42798 59.4957 4.98879C60.6623 6.3727 61.2456 8.26047 61.2456 10.6387C61.2697 11.9682 61.0422 13.2904 60.5751 14.5351C60.1542 15.6484 59.4629 16.6389 58.5638 17.4171C57.6723 18.1804 56.5854 18.6784 55.4261 18.8548V19.0966C56.6515 19.3291 57.824 19.7845 58.8856 20.4403C59.9421 21.1181 60.7876 22.0794 61.326 23.2148C61.9903 24.7255 62.2999 26.3688 62.2311 28.0182C62.2856 30.1365 61.6913 32.2208 60.5282 33.9905C59.3402 35.696 57.6778 37.0137 55.7479 37.7795C53.3615 38.6827 50.8224 39.1117 48.2724 39.0425H34.0991V0.957971H45.8923ZM46.7974 16.0534C49.1216 16.0534 50.7307 15.6794 51.6247 14.9315C52.0893 14.5383 52.4565 14.0424 52.6973 13.4828C52.9381 12.9232 53.046 12.3153 53.0125 11.7068C53.0636 11.086 52.9414 10.4633 52.6596 9.90804C52.3778 9.35283 51.9476 8.88706 51.4168 8.56278C50.3575 7.89098 48.6747 7.6021 46.3683 7.6021H42.1244V16.0534H46.7974ZM42.1043 22.4557V32.3782H47.3606C49.7697 32.3782 51.4526 31.9147 52.4091 30.9876C52.8912 30.4872 53.2669 29.894 53.5136 29.2439C53.7602 28.5938 53.8725 27.9002 53.8438 27.2053C53.8538 26.3221 53.6219 25.4531 53.1734 24.6928C52.6997 23.9137 51.9656 23.3281 51.1017 23.0401C49.8066 22.6054 48.444 22.4074 47.079 22.4557H42.1043Z" fill="#0055B8"/>
<path d="M99.1191 39.0425H89.9809L76.2232 19.7685V39.0425H68.1779V0.958008H76.2232V19.4124L89.8401 0.958008H98.395L84.5837 19.2512L99.1191 39.0425Z" fill="#0055B8"/>
<path fill-rule="evenodd" clip-rule="evenodd" d="M104.677 8.72405C104.677 9.3884 104.874 10.0378 105.242 10.5902C105.611 11.1426 106.134 11.5731 106.747 11.8274C107.359 12.0816 108.033 12.1481 108.683 12.0185C109.334 11.8889 109.931 11.569 110.4 11.0992C110.869 10.6295 111.188 10.0309 111.317 9.37936C111.447 8.72778 111.38 8.05239 111.127 7.43861C110.873 6.82483 110.443 6.30022 109.892 5.93113C109.341 5.56204 108.692 5.36504 108.029 5.36504C107.14 5.36504 106.288 5.71893 105.659 6.34887C105.03 6.97881 104.677 7.83318 104.677 8.72405ZM108.029 0.958008C106.497 0.959336 104.999 1.41594 103.725 2.27009C102.452 3.12424 101.459 4.33759 100.874 5.75677C100.288 7.17594 100.136 8.73722 100.436 10.2432C100.735 11.7493 101.474 13.1324 102.558 14.2178C103.642 15.3033 105.023 16.0422 106.527 16.3414C108.03 16.6405 109.588 16.4863 111.004 15.8983C112.419 15.3103 113.63 14.3149 114.481 13.0379C115.332 11.761 115.787 10.2597 115.787 8.72405C115.787 6.66437 114.97 4.68904 113.517 3.23263C112.063 1.77621 110.092 0.958008 108.036 0.958008L108.029 0.958008Z" fill="#E1251B"/>
<path d="M112.347 24.1016V26.6813H106.072V38.8409H102.921V24.1016H112.347Z" fill="#0055B8"/>
<path d="M119.4 24.1016C121.324 24.1016 122.719 24.5181 123.597 25.3444C124.051 25.773 124.406 26.2956 124.637 26.8757C124.869 27.4558 124.972 28.0795 124.938 28.7034C124.939 29.3355 124.84 29.9637 124.643 30.5643C124.441 31.1542 124.106 31.6897 123.664 32.1296C123.161 32.6189 122.554 32.9865 121.888 33.2045C121.002 33.4877 120.075 33.6194 119.145 33.5941H117.805V38.8409H114.647V24.1016H119.4ZM119.233 26.6611H117.791V31.0346H118.837C119.36 31.0458 119.881 30.9709 120.379 30.8129C120.782 30.6831 121.134 30.4292 121.385 30.0873C121.634 29.7098 121.758 29.2632 121.74 28.8109C121.765 28.5142 121.723 28.2157 121.619 27.9369C121.515 27.6581 121.35 27.406 121.137 27.1986C120.587 26.7968 119.911 26.6061 119.233 26.6611Z" fill="#0055B8"/>
<path d="M135.116 34.548C134.743 35.3975 134.294 36.2115 133.775 36.9799C133.328 37.6425 132.715 38.1754 131.998 38.525C131.104 38.9201 130.131 39.1039 129.155 39.0625C128.758 39.0602 128.362 39.0332 127.969 38.9819C127.566 38.9354 127.167 38.859 126.775 38.7535V36.0662C127.13 36.2081 127.502 36.3052 127.881 36.3551C128.257 36.4068 128.635 36.4338 129.014 36.4357C129.396 36.4529 129.777 36.3744 130.121 36.2073C130.395 36.064 130.626 35.8508 130.791 35.5893C130.973 35.3134 131.12 35.0154 131.227 34.7025L126.064 24.1149H129.417L132.199 30.4903L132.447 31.0277L132.742 31.6995C132.836 31.9279 132.916 32.1362 132.97 32.3176H133.071C133.131 32.1496 133.198 31.9548 133.285 31.7197L133.573 30.974C133.687 30.712 133.781 30.4836 133.868 30.3022L136.456 24.1082H139.721L135.116 34.548Z" fill="#0055B8"/>
<path d="M141.619 38.8409V24.1016H153.425V38.8409H150.268V26.7014H144.77V38.8409H141.619Z" fill="#0055B8"/>
<path d="M157.187 38.8409V24.1016H169V38.8409H165.842V26.7014H160.345V38.8409H157.187Z" fill="#0055B8"/>
</g>
<defs>
<clipPath id="clip0_4001_638">
<rect width="169" height="38.0845" fill="white" transform="translate(0 0.957764)"/>
</clipPath>
</defs>
</svg>
