<svg width="28" height="28" viewBox="0 0 28 28" fill="none" xmlns="http://www.w3.org/2000/svg">
<path fill-rule="evenodd" clip-rule="evenodd" d="M4.66675 6.3335C4.66675 4.67664 6.00989 3.3335 7.66675 3.3335H15.0001C16.6569 3.3335 18.0001 4.67664 18.0001 6.3335V9.00016C18.0001 9.55245 17.5524 10.0002 17.0001 10.0002C16.4478 10.0002 16.0001 9.55245 16.0001 9.00016V6.3335C16.0001 5.78121 15.5524 5.3335 15.0001 5.3335H7.66675C7.11446 5.3335 6.66675 5.78121 6.66675 6.3335V21.6668C6.66675 22.2191 7.11446 22.6668 7.66675 22.6668H15.0001C15.5524 22.6668 16.0001 22.2191 16.0001 21.6668V19.0002C16.0001 18.4479 16.4478 18.0002 17.0001 18.0002C17.5524 18.0002 18.0001 18.4479 18.0001 19.0002V21.6668C18.0001 23.3237 16.6569 24.6668 15.0001 24.6668H7.66675C6.00989 24.6668 4.66675 23.3237 4.66675 21.6668V6.3335Z" fill="#FEFEFE"/>
<path fill-rule="evenodd" clip-rule="evenodd" d="M8.66675 14.0002C8.66675 13.4479 9.11446 13.0002 9.66675 13.0002H22.3941L20.9978 11.7435C20.5873 11.374 20.554 10.7417 20.9235 10.3312C21.2929 9.92069 21.9252 9.88741 22.3357 10.2569L25.669 13.2569C25.8798 13.4465 26.0001 13.7167 26.0001 14.0002C26.0001 14.2836 25.8798 14.5538 25.669 14.7435L22.3357 17.7435C21.9252 18.1129 21.2929 18.0796 20.9235 17.6691C20.554 17.2586 20.5873 16.6263 20.9978 16.2569L22.3941 15.0002H9.66675C9.11446 15.0002 8.66675 14.5524 8.66675 14.0002Z" fill="#FEFEFE"/>
</svg>
