<svg width="179" height="41" viewBox="0 0 179 41" fill="none" xmlns="http://www.w3.org/2000/svg">
<g clip-path="url(#clip0_4021_912)">
<path d="M33.0102 40.5H23.3755L8.89167 20.2566V40.5H0.40918V0.5H8.89167V19.8826L23.2059 0.5H32.2185L17.664 19.7133L33.0102 40.5Z" fill="white"/>
<path d="M48.795 0.500086C51.7958 0.435931 54.7916 0.775311 57.7016 1.50908C59.8181 1.96163 61.7276 3.09433 63.1375 4.73364C64.3674 6.18716 64.9824 8.16987 64.9824 10.6677C65.0079 12.0641 64.768 13.4528 64.2756 14.7601C63.8317 15.9294 63.1029 16.9697 62.1549 17.7871C61.215 18.5887 60.069 19.1118 58.8468 19.2971V19.5511C60.1387 19.7952 61.3749 20.2735 62.4942 20.9622C63.6081 21.6742 64.4996 22.6838 65.0673 23.8763C65.7676 25.4631 66.094 27.189 66.0215 28.9213C66.079 31.1462 65.4524 33.3353 64.2261 35.194C62.9735 36.9853 61.2208 38.3693 59.1861 39.1736C56.67 40.1222 53.993 40.5728 51.3044 40.5001H36.3611V0.500086H48.795ZM49.7493 16.3547C52.1998 16.3547 53.8963 15.962 54.8388 15.1764C55.3286 14.7634 55.7158 14.2426 55.9697 13.6549C56.2236 13.0671 56.3374 12.4286 56.302 11.7896C56.3559 11.1376 56.2271 10.4834 55.93 9.90031C55.6329 9.31717 55.1792 8.82798 54.6196 8.48739C53.5028 7.78179 51.7285 7.47839 49.2969 7.47839H44.8224V16.3547H49.7493ZM44.8012 23.079V33.5006H50.3431C52.8831 33.5006 54.6573 33.0138 55.6658 32.04C56.1741 31.5145 56.5703 30.8915 56.8303 30.2087C57.0903 29.5258 57.2088 28.7974 57.1785 28.0676C57.189 27.14 56.9446 26.2272 56.4717 25.4286C55.9722 24.6104 55.1983 23.9953 54.2874 23.6929C52.9219 23.2363 51.4853 23.0283 50.0462 23.079H44.8012Z" fill="white"/>
<path d="M104.914 40.5H95.2788L80.7738 20.2566V40.5H72.2913V0.5H80.7738V19.8826L95.1304 0.5H104.15L89.5885 19.7133L104.914 40.5Z" fill="white"/>
<path fill-rule="evenodd" clip-rule="evenodd" d="M110.773 8.65664C110.773 9.35441 110.981 10.0365 111.369 10.6167C111.757 11.1968 112.309 11.649 112.955 11.916C113.601 12.1831 114.312 12.2529 114.997 12.1168C115.683 11.9807 116.313 11.6447 116.807 11.1513C117.301 10.6579 117.638 10.0293 117.774 9.34491C117.911 8.66055 117.841 7.9512 117.573 7.30655C117.306 6.6619 116.853 6.11091 116.271 5.72325C115.69 5.33559 115.007 5.12868 114.308 5.12868C113.37 5.12868 112.471 5.50038 111.809 6.162C111.146 6.82362 110.773 7.72097 110.773 8.65664ZM114.308 0.5C112.692 0.501395 111.113 0.98096 109.77 1.87807C108.427 2.77518 107.381 4.04956 106.763 5.54012C106.146 7.03067 105.985 8.67048 106.301 10.2522C106.617 11.834 107.396 13.2867 108.539 14.4267C109.682 15.5668 111.138 16.3429 112.723 16.6571C114.308 16.9712 115.951 16.8093 117.443 16.1917C118.936 15.5742 120.212 14.5287 121.11 13.1875C122.007 11.8463 122.486 10.2696 122.486 8.65664C122.486 6.49337 121.625 4.41869 120.093 2.88902C118.56 1.35936 116.482 0.5 114.315 0.5L114.308 0.5Z" fill="#E1251B"/>
<path d="M118.86 24.8079V27.5173H112.244V40.2885H108.922V24.8079H118.86Z" fill="white"/>
<path d="M126.296 24.8079C128.325 24.8079 129.795 25.2453 130.721 26.1132C131.2 26.5634 131.574 27.1123 131.818 27.7215C132.062 28.3308 132.17 28.9859 132.135 29.6412C132.136 30.305 132.031 30.9649 131.824 31.5957C131.611 32.2152 131.258 32.7777 130.792 33.2397C130.262 33.7535 129.621 34.1397 128.919 34.3686C127.985 34.6661 127.008 34.8044 126.028 34.7779H124.614V40.2885H121.285V24.8079H126.296ZM126.12 27.4962H124.6V32.0896H125.703C126.254 32.1013 126.803 32.0227 127.328 31.8567C127.753 31.7204 128.124 31.4538 128.389 31.0947C128.652 30.6981 128.783 30.2291 128.763 29.7541C128.789 29.4424 128.746 29.1289 128.636 28.8361C128.526 28.5433 128.352 28.2785 128.127 28.0606C127.547 27.6386 126.835 27.4383 126.12 27.4962Z" fill="white"/>
<path d="M142.866 35.7793C142.472 36.6716 141.999 37.5265 141.452 38.3336C140.981 39.0295 140.335 39.5892 139.579 39.9565C138.636 40.3713 137.611 40.5645 136.581 40.5209C136.163 40.5185 135.745 40.4902 135.33 40.4363C134.905 40.3874 134.485 40.3072 134.072 40.1964V37.374C134.447 37.523 134.839 37.6249 135.238 37.6774C135.634 37.7317 136.033 37.76 136.433 37.7621C136.836 37.7801 137.237 37.6977 137.599 37.5222C137.888 37.3716 138.132 37.1477 138.306 36.873C138.498 36.5833 138.653 36.2703 138.766 35.9416L133.323 24.8215H136.857L139.791 31.5176L140.052 32.082L140.363 32.7876C140.462 33.0275 140.547 33.2463 140.604 33.4368H140.71C140.773 33.2604 140.844 33.0558 140.936 32.8088L141.24 32.0256C141.36 31.7504 141.459 31.5105 141.551 31.32L144.279 24.8145H147.722L142.866 35.7793Z" fill="white"/>
<path d="M149.722 40.2885V24.8079H162.17V40.2885H158.841V27.5385H153.045V40.2885H149.722Z" fill="white"/>
<path d="M166.136 40.2885V24.8079H178.591V40.2885H175.261V27.5385H169.465V40.2885H166.136Z" fill="white"/>
</g>
<defs>
<clipPath id="clip0_4021_912">
<rect width="178.182" height="40" fill="white" transform="translate(0.40918 0.5)"/>
</clipPath>
</defs>
</svg>
