<svg width="161" height="102" viewBox="0 0 161 102" fill="none" xmlns="http://www.w3.org/2000/svg">
<g clip-path="url(#clip0_2069_5344)">
<rect width="160.775" height="101.305" rx="9.43324" fill="#0059FE"/>
<path d="M87.565 23.5831H105.816L107.662 33.8366L163.851 73.6203L158.93 103.971L89.8208 101.1L80.5926 43.8851L77.3115 31.5809L87.565 23.5831Z" fill="#FF0063"/>
<path d="M31.3381 55.9764C34.5554 54.7354 36.5736 51.3693 36.1735 47.9117C36.0402 46.7308 35.6397 45.5954 35.0027 44.5931C34.3657 43.5909 33.5094 42.7486 32.4998 42.1312C31.4901 41.5138 30.3542 41.1378 29.1796 41.0323C28.005 40.9267 26.8231 41.0945 25.7251 41.5225C22.5058 42.7668 20.4876 46.1329 20.8897 49.5872C21.023 50.7682 21.4235 51.9035 22.0605 52.9058C22.6974 53.9081 23.5538 54.7504 24.5634 55.3678C25.573 55.9852 26.709 56.3611 27.8836 56.4667C29.0582 56.5722 30.2401 56.4045 31.3381 55.9764ZM26.5073 34.3602C29.7887 33.914 33.1272 34.6173 35.9646 36.3524C38.802 38.0875 40.9662 40.7492 42.0955 43.8925C45.1651 52.6018 39.6184 61.8528 30.5513 63.1427C27.2702 63.5882 23.9322 62.8845 21.0954 61.1494C18.2585 59.4142 16.0947 56.7527 14.9657 53.6098C11.8961 44.9005 17.4427 35.6495 26.5073 34.3602ZM46.6435 30.0049L67.1219 24.9734C67.9006 24.7821 68.5609 25.5719 68.2457 26.3123L58.71 48.6505L69.8114 45.9229C71.8352 45.4257 73.8834 46.8916 73.9849 49.1107C74.0591 50.7387 72.8754 52.1516 71.3073 52.5369L49.0674 58.0012C48.2966 58.1906 47.6409 57.4081 47.9528 56.677L57.4951 34.3202L48.383 36.559C46.8149 36.9443 45.1106 36.2382 44.4225 34.7639C43.4814 32.7511 44.6197 30.5022 46.6435 30.0049ZM135.534 8.24397C137.538 7.2757 139.794 8.43276 140.298 10.4849L145.88 33.2057C146.075 33.9993 145.275 34.6634 144.54 34.3227L123.401 24.5251L126.118 35.5848C126.622 37.637 125.159 39.7078 122.935 39.7783C121.341 39.8299 119.953 38.6608 119.57 37.1003L114.007 14.4597C113.812 13.6661 114.612 13.002 115.347 13.3426L136.489 23.1397L133.795 12.1761C133.412 10.6156 134.104 8.93826 135.537 8.24332L135.534 8.24397ZM89.3631 18.8401C100.178 16.1828 110.498 20.3454 112.413 28.1372C114.327 35.929 107.111 44.4 96.296 47.0573C85.4807 49.7146 75.1609 45.5521 73.2465 37.7602C71.3321 29.9684 78.5478 21.4974 89.3631 18.8401ZM90.9808 25.4241C83.5083 27.2601 78.9008 32.6054 79.7733 36.1566C80.6458 39.7078 87.2059 42.3093 94.6784 40.4733C102.151 38.6373 106.759 33.2947 105.886 29.7408C105.013 26.1869 98.4533 23.5881 90.9808 25.4241Z" fill="#FEFEFE"/>
</g>
<defs>
<clipPath id="clip0_2069_5344">
<rect width="160.775" height="101.305" rx="10.2535" fill="white"/>
</clipPath>
</defs>
</svg>
