<svg width="243" height="202" viewBox="0 0 243 202" fill="none" xmlns="http://www.w3.org/2000/svg">
<path d="M18.783 136.425V120.445L52.5466 88.8725C54.9521 86.6387 56.7133 84.6628 57.8302 82.9445C59.033 81.2263 59.8062 79.6798 60.1498 78.3052C60.5794 76.8447 60.7942 75.5131 60.7942 74.3103C60.7942 71.3893 59.8062 69.1126 57.8302 67.4803C55.9401 65.848 53.0621 65.0318 49.196 65.0318C45.9313 65.0318 42.8815 65.762 40.0463 67.2226C37.2112 68.6831 34.8916 70.8738 33.0874 73.7948L14.1438 63.2276C17.4944 57.5574 22.3484 53.0041 28.7059 49.5676C35.0634 46.1311 42.6667 44.4128 51.5156 44.4128C58.4745 44.4128 64.5743 45.5297 69.815 47.7634C75.0556 49.9971 79.1364 53.1759 82.0575 57.2997C85.0644 61.4235 86.5679 66.2775 86.5679 71.8618C86.5679 74.7828 86.1813 77.7039 85.4081 80.6249C84.6348 83.46 83.1314 86.5099 80.8977 89.7745C78.7498 92.9533 75.5281 96.5187 71.2325 100.471L44.4279 125.213L40.1752 116.193H89.0164V136.425H18.783Z" fill="#FEFEFE"/>
<g style="mix-blend-mode:plus-lighter" filter="url(#filter0_f_2007_5476)">
<ellipse cx="121.899" cy="100.99" rx="55.492" ry="80.5155" transform="rotate(72.6377 121.899 100.99)" fill="#0055B8"/>
</g>
<path d="M119.585 131.113L118.055 132.717V116.566H125.105V132.717L123.501 131.113H132.08L130.551 132.717V116.566H137.563V136.783H105.523V116.566H112.572V132.717L111.043 131.113H119.585ZM154.322 136.783V133.016L153.837 132.083V125.145C153.837 124.026 153.489 123.168 152.793 122.572C152.121 121.95 151.04 121.639 149.548 121.639C148.578 121.639 147.596 121.801 146.601 122.124C145.606 122.422 144.761 122.845 144.065 123.392L141.677 118.581C142.821 117.835 144.189 117.263 145.78 116.865C147.397 116.442 149.001 116.231 150.592 116.231C153.874 116.231 156.411 116.989 158.201 118.506C160.017 119.998 160.924 122.348 160.924 125.556V136.783H154.322ZM148.354 137.119C146.738 137.119 145.37 136.845 144.251 136.298C143.132 135.751 142.274 135.005 141.677 134.06C141.106 133.115 140.82 132.058 140.82 130.889C140.82 129.646 141.13 128.577 141.752 127.682C142.399 126.762 143.381 126.065 144.699 125.593C146.017 125.096 147.72 124.847 149.809 124.847H154.583V128.54H150.779C149.635 128.54 148.827 128.726 148.354 129.099C147.907 129.472 147.683 129.969 147.683 130.591C147.683 131.213 147.919 131.71 148.391 132.083C148.864 132.456 149.51 132.643 150.331 132.643C151.102 132.643 151.798 132.456 152.42 132.083C153.066 131.685 153.539 131.088 153.837 130.293L154.807 132.904C154.434 134.296 153.7 135.353 152.606 136.074C151.537 136.77 150.12 137.119 148.354 137.119ZM165.188 136.783V116.566H182.122V122.199H170.708L172.237 120.669V136.783H165.188Z" fill="#FEFEFE"/>
<path d="M117.607 54.8474C117.607 52.9545 119.142 51.4199 121.035 51.4199H134.745C136.638 51.4199 138.172 52.9545 138.172 54.8474V68.5573C138.172 70.4503 136.638 71.9848 134.745 71.9848H121.035C119.142 71.9848 117.607 70.4503 117.607 68.5573V54.8474Z" stroke="#FEFEFE" stroke-width="5.35469" stroke-linecap="round" stroke-linejoin="round"/>
<path d="M117.607 84.5522C117.607 82.6593 119.142 81.1247 121.035 81.1247H134.745C136.638 81.1247 138.172 82.6593 138.172 84.5522V98.2621C138.172 100.155 136.638 101.69 134.745 101.69H121.035C119.142 101.69 117.607 100.155 117.607 98.2621V84.5522Z" stroke="#FEFEFE" stroke-width="5.35469" stroke-linecap="round" stroke-linejoin="round"/>
<path d="M147.312 54.8474C147.312 52.9545 148.847 51.4199 150.739 51.4199H164.449C166.342 51.4199 167.877 52.9545 167.877 54.8474V68.5573C167.877 70.4503 166.342 71.9848 164.449 71.9848H150.739C148.847 71.9848 147.312 70.4503 147.312 68.5573V54.8474Z" stroke="#FEFEFE" stroke-width="5.35469" stroke-linecap="round" stroke-linejoin="round"/>
<path d="M126.747 60.5599H129.032V62.8449H126.747V60.5599Z" stroke="#FEFEFE" stroke-width="5.35469" stroke-linecap="round" stroke-linejoin="round"/>
<path d="M126.747 90.2647H129.032V92.5497H126.747V90.2647Z" stroke="#FEFEFE" stroke-width="5.35469" stroke-linecap="round" stroke-linejoin="round"/>
<path d="M156.452 60.5599H158.737V62.8449H156.452V60.5599Z" stroke="#FEFEFE" stroke-width="5.35469" stroke-linecap="round" stroke-linejoin="round"/>
<path d="M147.312 81.1247H149.597V83.4097H147.312V81.1247Z" stroke="#FEFEFE" stroke-width="5.35469" stroke-linecap="round" stroke-linejoin="round"/>
<path d="M147.312 99.4046H149.597V101.69H147.312V99.4046Z" stroke="#FEFEFE" stroke-width="5.35469" stroke-linecap="round" stroke-linejoin="round"/>
<path d="M165.592 81.1247H167.877V83.4097H165.592V81.1247Z" stroke="#FEFEFE" stroke-width="5.35469" stroke-linecap="round" stroke-linejoin="round"/>
<path d="M165.592 99.4046H167.877V101.69H165.592V99.4046Z" stroke="#FEFEFE" stroke-width="5.35469" stroke-linecap="round" stroke-linejoin="round"/>
<path d="M156.452 90.2647H158.737V92.5497H156.452V90.2647Z" stroke="#FEFEFE" stroke-width="5.35469" stroke-linecap="round" stroke-linejoin="round"/>
<defs>
<filter id="filter0_f_2007_5476" x="0.843128" y="0.388783" width="242.112" height="201.203" filterUnits="userSpaceOnUse" color-interpolation-filters="sRGB">
<feFlood flood-opacity="0" result="BackgroundImageFix"/>
<feBlend mode="normal" in="SourceGraphic" in2="BackgroundImageFix" result="shape"/>
<feGaussianBlur stdDeviation="21.2144" result="effect1_foregroundBlur_2007_5476"/>
</filter>
</defs>
</svg>
