<svg width="243" height="202" viewBox="0 0 243 202" fill="none" xmlns="http://www.w3.org/2000/svg">
<path d="M49.3248 138.229C43.0532 138.229 36.7816 137.456 30.51 135.909C24.3244 134.363 18.9119 132.172 14.2726 129.337L23.5511 110.136C27.1595 112.541 31.1544 114.388 35.5359 115.677C40.0034 116.966 44.3419 117.61 48.5516 117.61C52.9332 117.61 56.4126 116.794 58.99 115.162C61.5673 113.529 62.856 111.21 62.856 108.203C62.856 105.539 61.7821 103.435 59.6343 101.888C57.4865 100.256 53.9641 99.4397 49.0671 99.4397H38.371V83.3311L62.5983 57.1708L65.0468 65.9339H18.9119V46.217H84.1193V62.1967L59.8921 88.357L47.3918 81.2692H54.3507C65.6052 81.2692 74.1105 83.8036 79.8667 88.8725C85.7087 93.8554 88.6297 100.299 88.6297 108.203C88.6297 113.357 87.2122 118.212 84.3771 122.765C81.6279 127.318 77.3752 131.055 71.6191 133.976C65.863 136.812 58.4315 138.229 49.3248 138.229Z" fill="#FEFEFE"/>
<g style="mix-blend-mode:plus-lighter" filter="url(#filter0_f_2007_5486)">
<ellipse cx="121.77" cy="100.99" rx="55.492" ry="80.5155" transform="rotate(72.6377 121.77 100.99)" fill="#0055B8"/>
</g>
<path d="M167.879 74.2188V99.3125C167.879 101.832 165.837 103.875 163.317 103.875H119.973C117.453 103.875 115.411 101.832 115.411 99.3125V74.2188M140.504 54.8281C140.504 50.4185 136.93 46.8438 132.52 46.8438C128.11 46.8438 124.536 50.4185 124.536 54.8281C124.536 59.2378 128.11 62.8125 132.52 62.8125C134.754 62.8125 140.504 62.8125 140.504 62.8125M140.504 54.8281C140.504 57.0036 140.504 62.8125 140.504 62.8125M140.504 54.8281C140.504 50.4185 144.079 46.8438 148.489 46.8438C152.898 46.8438 156.473 50.4185 156.473 54.8281C156.473 59.2378 152.898 62.8125 148.489 62.8125C146.255 62.8125 140.504 62.8125 140.504 62.8125M140.504 62.8125V103.875M114.27 74.2188H169.02C170.91 74.2188 172.442 72.6867 172.442 70.7969V66.2344C172.442 64.3445 170.91 62.8125 169.02 62.8125H114.27C112.38 62.8125 110.848 64.3445 110.848 66.2344V70.7969C110.848 72.6867 112.38 74.2188 114.27 74.2188Z" stroke="#FEFEFE" stroke-width="4.5625" stroke-linecap="round" stroke-linejoin="round"/>
<path d="M119.456 131.113L117.926 132.717V116.566H124.976V132.717L123.372 131.113H131.951L130.422 132.717V116.566H137.434V136.783H105.394V116.566H112.443V132.717L110.914 131.113H119.456ZM154.193 136.783V133.016L153.708 132.083V125.145C153.708 124.026 153.36 123.168 152.664 122.572C151.992 121.95 150.911 121.639 149.419 121.639C148.449 121.639 147.467 121.801 146.472 122.124C145.477 122.422 144.632 122.845 143.936 123.392L141.549 118.581C142.692 117.835 144.06 117.263 145.652 116.865C147.268 116.442 148.872 116.231 150.463 116.231C153.746 116.231 156.282 116.989 158.072 118.506C159.888 119.998 160.795 122.348 160.795 125.556V136.783H154.193ZM148.225 137.119C146.609 137.119 145.241 136.845 144.122 136.298C143.003 135.751 142.145 135.005 141.549 134.06C140.977 133.115 140.691 132.058 140.691 130.889C140.691 129.646 141.002 128.577 141.623 127.682C142.27 126.762 143.252 126.065 144.57 125.593C145.888 125.096 147.591 124.847 149.68 124.847H154.454V128.54H150.65C149.506 128.54 148.698 128.726 148.225 129.099C147.778 129.472 147.554 129.969 147.554 130.591C147.554 131.213 147.79 131.71 148.263 132.083C148.735 132.456 149.382 132.643 150.202 132.643C150.973 132.643 151.669 132.456 152.291 132.083C152.937 131.685 153.41 131.088 153.708 130.293L154.678 132.904C154.305 134.296 153.572 135.353 152.477 136.074C151.408 136.77 149.991 137.119 148.225 137.119ZM165.059 136.783V116.566H181.993V122.199H170.579L172.108 120.669V136.783H165.059Z" fill="#FEFEFE"/>
<defs>
<filter id="filter0_f_2007_5486" x="0.714222" y="0.388783" width="242.112" height="201.203" filterUnits="userSpaceOnUse" color-interpolation-filters="sRGB">
<feFlood flood-opacity="0" result="BackgroundImageFix"/>
<feBlend mode="normal" in="SourceGraphic" in2="BackgroundImageFix" result="shape"/>
<feGaussianBlur stdDeviation="21.2144" result="effect1_foregroundBlur_2007_5486"/>
</filter>
</defs>
</svg>
